<?xml version="1.0" encoding="UTF-8"?>
<svg version="1.1" xmlns="http://www.w3.org/2000/svg" width="512" height="512">
<path d="M0 0 C1.45108658 0.00273422 1.45108658 0.00273422 2.93148804 0.00552368 C17.26440977 0.05095174 31.21023917 0.55983928 45.3125 3.3125 C46.65803955 3.55395752 46.65803955 3.55395752 48.03076172 3.80029297 C107.84088904 14.62287989 165.35495829 48.68064457 202.3125 97.3125 C202.72918945 97.85277832 203.14587891 98.39305664 203.57519531 98.94970703 C211.2584873 108.9447116 218.00092968 119.40459036 224.3125 130.3125 C224.70679199 130.98974121 225.10108398 131.66698242 225.50732422 132.36474609 C238.68961173 155.2833756 247.29510918 180.85822563 252.625 206.6875 C252.77243652 207.39817627 252.91987305 208.10885254 253.07177734 208.84106445 C256.05713787 224.48358366 256.6873098 240.11919606 256.625 256 C256.62226578 257.45108658 256.62226578 257.45108658 256.61947632 258.93148804 C256.57404826 273.26440977 256.06516072 287.21023917 253.3125 301.3125 C253.15152832 302.20952637 252.99055664 303.10655273 252.82470703 304.03076172 C242.00212011 363.84088904 207.94435543 421.35495829 159.3125 458.3125 C158.77222168 458.72918945 158.23194336 459.14587891 157.67529297 459.57519531 C147.6802884 467.2584873 137.22040964 474.00092968 126.3125 480.3125 C125.63525879 480.70679199 124.95801758 481.10108398 124.26025391 481.50732422 C101.3416244 494.68961173 75.76677437 503.29510918 49.9375 508.625 C49.22682373 508.77243652 48.51614746 508.91987305 47.78393555 509.07177734 C32.14141634 512.05713787 16.50580394 512.6873098 0.625 512.625 C-0.34239105 512.62317719 -1.3097821 512.62135437 -2.30648804 512.61947632 C-16.63940977 512.57404826 -30.58523917 512.06516072 -44.6875 509.3125 C-45.58452637 509.15152832 -46.48155273 508.99055664 -47.40576172 508.82470703 C-107.21588904 498.00212011 -164.72995829 463.94435543 -201.6875 415.3125 C-202.10418945 414.77222168 -202.52087891 414.23194336 -202.95019531 413.67529297 C-210.6334873 403.6802884 -217.37592968 393.22040964 -223.6875 382.3125 C-224.08179199 381.63525879 -224.47608398 380.95801758 -224.88232422 380.26025391 C-238.06461173 357.3416244 -246.67010918 331.76677437 -252 305.9375 C-252.14743652 305.22682373 -252.29487305 304.51614746 -252.44677734 303.78393555 C-255.43213787 288.14141634 -256.0623098 272.50580394 -256 256.625 C-255.99817719 255.65760895 -255.99635437 254.6902179 -255.99447632 253.69351196 C-255.94904826 239.36059023 -255.44016072 225.41476083 -252.6875 211.3125 C-252.44604248 209.96696045 -252.44604248 209.96696045 -252.19970703 208.59423828 C-241.37712011 148.78411096 -207.31935543 91.27004171 -158.6875 54.3125 C-158.14722168 53.89581055 -157.60694336 53.47912109 -157.05029297 53.04980469 C-147.0552884 45.3665127 -136.59540964 38.62407032 -125.6875 32.3125 C-125.01025879 31.91820801 -124.33301758 31.52391602 -123.63525391 31.11767578 C-100.7166244 17.93538827 -75.14177437 9.32989082 -49.3125 4 C-48.60182373 3.85256348 -47.89114746 3.70512695 -47.15893555 3.55322266 C-31.51641634 0.56786213 -15.88080394 -0.0623098 0 0 Z " fill="#2D5395" transform="translate(255.6875,-0.3125)"/>
<path d="M0 0 C1.29003343 -0.00467997 2.58006685 -0.00935994 3.9091922 -0.01418173 C7.47897869 -0.02668131 11.04852392 -0.02052617 14.61831117 -0.01122308 C18.4725368 -0.00442848 22.32672129 -0.01491594 26.18093872 -0.02316284 C33.72759369 -0.03649875 41.27415911 -0.03362286 48.82081757 -0.02492492 C54.95568807 -0.01814722 61.09053348 -0.01723203 67.22540665 -0.02049637 C68.53560747 -0.02118592 68.53560747 -0.02118592 69.872277 -0.0218894 C71.64678669 -0.02284859 73.42129637 -0.02382123 75.19580604 -0.02480717 C91.83397204 -0.03336091 108.47208845 -0.02352771 125.11024632 -0.00740607 C139.37952215 0.00599239 153.64872476 0.00367288 167.91799927 -0.01016235 C184.49390529 -0.02622656 201.06976783 -0.03253198 217.64568055 -0.02332556 C219.41423996 -0.02236993 221.18279937 -0.02142682 222.9513588 -0.02049637 C223.82148632 -0.02003354 224.69161384 -0.01957072 225.58810886 -0.01909386 C231.71297427 -0.01650615 237.83781205 -0.02087036 243.96267319 -0.02793503 C251.43079474 -0.03635978 258.89882174 -0.03404961 266.3669325 -0.0180928 C270.17565018 -0.01022245 273.98421036 -0.00709722 277.79292679 -0.01704025 C281.92556417 -0.02766548 286.05780576 -0.01495612 290.19042969 0 C291.38897894 -0.00669217 292.58752819 -0.01338433 293.82239711 -0.02027929 C303.87562639 0.05029859 311.15848155 1.61998563 318.56204224 8.61141968 C324.12045302 14.53603165 324.37135299 20.15728263 324.37609863 27.95690918 C324.38048089 28.83123498 324.38486314 29.70556078 324.38937819 30.6063813 C324.4027534 33.54181946 324.40894221 36.4772276 324.41506958 39.41268921 C324.42297158 41.51525508 324.43124059 43.6178196 324.43984985 45.72038269 C324.46605951 52.63066311 324.48137684 59.54094956 324.49563599 66.45126343 C324.50099617 68.83091104 324.50637368 71.21055861 324.51176834 73.59020615 C324.53339585 83.48976936 324.5521321 93.38933096 324.56339073 103.28891182 C324.57962706 117.47161098 324.61279897 131.65403606 324.66979158 145.83663189 C324.70850671 155.81130862 324.72802533 165.78591208 324.7333113 175.76066196 C324.73696266 181.71682857 324.7489616 187.67270279 324.78141403 193.62878799 C324.81152183 199.23490619 324.81779654 204.84055546 324.80603027 210.44673729 C324.80580977 212.50018119 324.81409575 214.55364702 324.83168411 216.60701561 C325.00237236 237.68789259 325.00237236 237.68789259 317.66490746 246.18419075 C310.43222707 253.1671286 301.52332079 253.82359193 291.91921997 253.7215271 C290.82550583 253.72196518 289.73179169 253.72240326 288.60493469 253.72285461 C285.01753406 253.72077744 281.43061046 253.69749653 277.84329224 253.67391968 C275.34509028 253.66831993 272.84688502 253.66405162 270.34867859 253.66105652 C264.46276289 253.65080255 258.57702115 253.62719846 252.69117647 253.59700805 C245.32589629 253.560057 237.96059464 253.54404544 230.59524536 253.5274353 C217.47079394 253.49532338 204.34654454 253.44257945 191.22219849 253.38095093 C191.22219849 266.91095093 191.22219849 280.44095093 191.22219849 294.38095093 C195.51219849 294.38095093 199.80219849 294.38095093 204.22219849 294.38095093 C204.22219849 303.29095093 204.22219849 312.20095093 204.22219849 321.38095093 C165.94219849 321.38095093 127.66219849 321.38095093 88.22219849 321.38095093 C88.22219849 312.47095093 88.22219849 303.56095093 88.22219849 294.38095093 C92.51219849 294.38095093 96.80219849 294.38095093 101.22219849 294.38095093 C101.22219849 280.85095093 101.22219849 267.32095093 101.22219849 253.38095093 C97.84622437 253.40189819 94.47025024 253.42284546 90.99197388 253.44442749 C79.82416841 253.51077619 68.65634743 253.55512192 57.48839664 253.58819962 C50.71881595 253.60878493 43.94942258 253.63682768 37.17996216 253.68270874 C30.64420212 253.72698457 24.1085634 253.75010482 17.57266045 253.7604599 C15.08204528 253.76783725 12.59144047 253.78224344 10.10090828 253.80387115 C6.60603162 253.83300711 3.11195291 253.83690251 -0.38302612 253.83505249 C-1.91944008 253.85662415 -1.91944008 253.85662415 -3.4868927 253.87863159 C-11.60700768 253.8322746 -17.27827084 251.6691056 -24.02780151 247.25595093 C-33.40877788 237.44856655 -32.49380972 226.42147132 -32.42477417 213.6680603 C-32.43155638 211.56460312 -32.44046288 209.46115187 -32.45132446 207.35771179 C-32.47405237 201.66551622 -32.46530815 195.97377551 -32.44942904 190.28157234 C-32.4367364 184.31383193 -32.44851949 178.34612946 -32.45635986 172.37838745 C-32.4654466 162.35817501 -32.453494 152.33814706 -32.42965698 142.31796265 C-32.40244776 130.74688414 -32.4112626 119.17624619 -32.43878901 107.60517836 C-32.46150676 97.65581994 -32.46466707 87.70659386 -32.45159566 77.75721788 C-32.44381588 71.8213126 -32.44271919 65.88561414 -32.45927811 59.94972229 C-32.47376225 54.36807402 -32.46362859 48.78699166 -32.43480682 43.20540428 C-32.42821714 41.16165797 -32.43005724 39.11786372 -32.44112015 37.07413673 C-32.54677644 15.56632765 -32.54677644 15.56632765 -25.02251625 7.49897003 C-17.54969138 0.32232245 -9.91909855 -0.05517843 0 0 Z " fill="#FE5940" transform="translate(109.77780151367188,109.61904907226563)"/>
<path d="M0 0 C4.78295612 4.01938427 9.38373701 8.17913295 13.8815918 12.51416016 C14.52967804 13.13639969 15.17776428 13.75863922 15.8454895 14.3997345 C21.78969223 20.11905452 27.68940367 25.88394497 33.5748167 31.66369057 C37.51402508 35.53072881 41.46698696 39.38094595 45.45727539 43.1953125 C49.33996636 46.90768452 53.18075348 50.65915608 56.99686623 54.43989182 C58.4449117 55.861189 59.90668139 57.26866104 61.38290977 58.6606636 C72.54440529 69.21302544 76.45487485 77.782951 78 93 C78.30623736 95.28526927 78.63118734 97.56725734 78.9585495 99.849576 C80.4062156 110.7366772 80.355511 121.72535049 80.3125 132.6875 C80.30976578 134.13858658 80.30976578 134.13858658 80.30697632 135.61898804 C80.26154826 149.95190977 79.75266072 163.89773917 77 178 C76.83902832 178.89702637 76.67805664 179.79405273 76.51220703 180.71826172 C65.68962011 240.52838904 31.63185543 298.04245829 -17 335 C-17.54027832 335.41668945 -18.08055664 335.83337891 -18.63720703 336.26269531 C-28.6322116 343.9459873 -39.09209036 350.68842968 -50 357 C-50.67724121 357.39429199 -51.35448242 357.78858398 -52.05224609 358.19482422 C-74.9708756 371.37711173 -100.54572563 379.98260918 -126.375 385.3125 C-127.08567627 385.45993652 -127.79635254 385.60737305 -128.52856445 385.75927734 C-134.52628954 386.90393771 -140.57672596 387.52966485 -146.6446293 388.16615629 C-150.56320764 388.58612752 -154.45444697 389.04977087 -158.34297752 389.69406128 C-171.95419794 391.90398522 -186.05128782 393.1104199 -197.86050838 384.85864592 C-207.91116834 377.09832704 -216.58558836 367.75296243 -225.24286866 358.50870705 C-229.30787375 354.20962758 -233.48067887 350.01765351 -237.64225769 345.81237793 C-245.47752839 337.86288918 -253.2138343 329.82411499 -260.91747636 321.74722815 C-269.70416219 312.54444942 -278.59838584 303.44870251 -287.50237429 294.35959911 C-305.78876867 275.68825408 -323.93877591 256.88906479 -342 238 C-341.34 237.67 -340.68 237.34 -340 237 C-339.19674286 237.30279877 -338.39348572 237.60559753 -337.56588745 237.91757202 C-332.66000765 239.40675575 -328.04605054 239.30820337 -322.94580078 239.31884766 C-321.84277115 239.32889328 -320.73974152 239.3389389 -319.60328674 239.34928894 C-315.96730049 239.38011242 -312.33138786 239.39715404 -308.6953125 239.4140625 C-306.17039355 239.43277478 -303.64548084 239.45234824 -301.12057495 239.4727478 C-295.16029957 239.51882649 -289.20000995 239.55623708 -283.23965251 239.58942068 C-276.45119234 239.62770041 -269.66282712 239.67709514 -262.87444711 239.72740483 C-248.91636146 239.83060223 -234.95822796 239.91843498 -221 240 C-221 253.53 -221 267.06 -221 281 C-225.29 281 -229.58 281 -234 281 C-234 289.91 -234 298.82 -234 308 C-195.72 308 -157.44 308 -118 308 C-118 299.09 -118 290.18 -118 281 C-122.29 281 -126.58 281 -131 281 C-131 267.47 -131 253.94 -131 240 C-127.66479248 239.9906543 -124.32958496 239.98130859 -120.89331055 239.97167969 C-109.84908688 239.9378473 -98.80504883 239.88226329 -87.76097393 239.81609726 C-81.06777038 239.7763991 -74.37470501 239.74445339 -67.68139648 239.72900391 C-61.21676906 239.71381235 -54.75250137 239.67932143 -48.28803444 239.63169098 C-45.82704617 239.61690313 -43.36600654 239.60896048 -40.90497398 239.60811615 C-37.44627318 239.60573704 -33.9885589 239.57857939 -30.5300293 239.54589844 C-29.52229462 239.5509288 -28.51455994 239.55595917 -27.47628784 239.56114197 C-19.9789696 239.45220405 -11.91074385 238.33649809 -6.01769543 233.30877304 C-0.12028151 227.00888044 1.45039894 220.39316545 1.36749268 212.03636169 C1.37076152 211.15665036 1.37403036 210.27693902 1.37739825 209.37056977 C1.38465719 206.43493848 1.37054265 203.49980949 1.35644531 200.56420898 C1.35723649 198.45471105 1.35933468 196.34521326 1.36264038 194.23571777 C1.36776963 188.51476778 1.35424846 182.793998 1.33711338 177.07307696 C1.32206576 171.084779 1.32325113 165.09648326 1.32244873 159.10816956 C1.31875753 149.05328296 1.30379734 138.99846469 1.28125 128.94360352 C1.25236961 116.03828034 1.24202555 103.13301216 1.2375679 90.22766018 C1.23358698 79.1306959 1.22108597 68.03374356 1.20722103 56.93678784 C1.20312417 53.37037448 1.20019747 49.80396154 1.19742584 46.23754692 C1.19252851 40.63398232 1.1823177 35.03045094 1.16798782 29.42690277 C1.1634697 27.37018445 1.16062731 25.31346168 1.15958023 23.25673866 C1.1578308 20.45001076 1.14993807 17.64336553 1.14044189 14.83665466 C1.14130838 14.02235267 1.14217486 13.20805067 1.1430676 12.36907285 C1.12157464 8.13577765 0.83691389 4.17025326 0 0 Z " fill="#1B3B6B" transform="translate(432,123)"/>
<path d="M0 0 C1.29003343 -0.00467997 2.58006685 -0.00935994 3.9091922 -0.01418173 C7.47897869 -0.02668131 11.04852392 -0.02052617 14.61831117 -0.01122308 C18.4725368 -0.00442848 22.32672129 -0.01491594 26.18093872 -0.02316284 C33.72759369 -0.03649875 41.27415911 -0.03362286 48.82081757 -0.02492492 C54.95568807 -0.01814722 61.09053348 -0.01723203 67.22540665 -0.02049637 C68.53560747 -0.02118592 68.53560747 -0.02118592 69.872277 -0.0218894 C71.64678669 -0.02284859 73.42129637 -0.02382123 75.19580604 -0.02480717 C91.83397204 -0.03336091 108.47208845 -0.02352771 125.11024632 -0.00740607 C139.37952215 0.00599239 153.64872476 0.00367288 167.91799927 -0.01016235 C184.49390529 -0.02622656 201.06976783 -0.03253198 217.64568055 -0.02332556 C219.41423996 -0.02236993 221.18279937 -0.02142682 222.9513588 -0.02049637 C223.82148632 -0.02003354 224.69161384 -0.01957072 225.58810886 -0.01909386 C231.71297427 -0.01650615 237.83781205 -0.02087036 243.96267319 -0.02793503 C251.43079474 -0.03635978 258.89882174 -0.03404961 266.3669325 -0.0180928 C270.17565018 -0.01022245 273.98421036 -0.00709722 277.79292679 -0.01704025 C281.92556417 -0.02766548 286.05780576 -0.01495612 290.19042969 0 C291.38897894 -0.00669217 292.58752819 -0.01338433 293.82239711 -0.02027929 C303.87562639 0.05029859 311.15848155 1.61998563 318.56204224 8.61141968 C324.12045302 14.53603165 324.37135299 20.15728263 324.37609863 27.95690918 C324.38048089 28.83123498 324.38486314 29.70556078 324.38937819 30.6063813 C324.4027534 33.54181946 324.40894221 36.4772276 324.41506958 39.41268921 C324.42297158 41.51525508 324.43124059 43.6178196 324.43984985 45.72038269 C324.46605951 52.63066311 324.48137684 59.54094956 324.49563599 66.45126343 C324.50099617 68.83091104 324.50637368 71.21055861 324.51176834 73.59020615 C324.53339585 83.48976936 324.5521321 93.38933096 324.56339073 103.28891182 C324.57962706 117.47161098 324.61279897 131.65403606 324.66979158 145.83663189 C324.70850671 155.81130862 324.72802533 165.78591208 324.7333113 175.76066196 C324.73696266 181.71682857 324.7489616 187.67270279 324.78141403 193.62878799 C324.81152183 199.23490619 324.81779654 204.84055546 324.80603027 210.44673729 C324.80580977 212.50018119 324.81409575 214.55364702 324.83168411 216.60701561 C325.00237236 237.68789259 325.00237236 237.68789259 317.66490746 246.18419075 C310.43222707 253.1671286 301.52332079 253.82359193 291.91921997 253.7215271 C290.82550583 253.72196518 289.73179169 253.72240326 288.60493469 253.72285461 C285.01753406 253.72077744 281.43061046 253.69749653 277.84329224 253.67391968 C275.34509028 253.66831993 272.84688502 253.66405162 270.34867859 253.66105652 C264.46276289 253.65080255 258.57702115 253.62719846 252.69117647 253.59700805 C245.32589629 253.560057 237.96059464 253.54404544 230.59524536 253.5274353 C217.47079394 253.49532338 204.34654454 253.44257945 191.22219849 253.38095093 C191.22219849 266.91095093 191.22219849 280.44095093 191.22219849 294.38095093 C195.51219849 294.38095093 199.80219849 294.38095093 204.22219849 294.38095093 C204.22219849 303.29095093 204.22219849 312.20095093 204.22219849 321.38095093 C165.94219849 321.38095093 127.66219849 321.38095093 88.22219849 321.38095093 C88.22219849 312.47095093 88.22219849 303.56095093 88.22219849 294.38095093 C92.51219849 294.38095093 96.80219849 294.38095093 101.22219849 294.38095093 C101.22219849 280.85095093 101.22219849 267.32095093 101.22219849 253.38095093 C97.84622437 253.40189819 94.47025024 253.42284546 90.99197388 253.44442749 C79.82416841 253.51077619 68.65634743 253.55512192 57.48839664 253.58819962 C50.71881595 253.60878493 43.94942258 253.63682768 37.17996216 253.68270874 C30.64420212 253.72698457 24.1085634 253.75010482 17.57266045 253.7604599 C15.08204528 253.76783725 12.59144047 253.78224344 10.10090828 253.80387115 C6.60603162 253.83300711 3.11195291 253.83690251 -0.38302612 253.83505249 C-1.91944008 253.85662415 -1.91944008 253.85662415 -3.4868927 253.87863159 C-11.60700768 253.8322746 -17.27827084 251.6691056 -24.02780151 247.25595093 C-33.40877788 237.44856655 -32.49380972 226.42147132 -32.42477417 213.6680603 C-32.43155638 211.56460312 -32.44046288 209.46115187 -32.45132446 207.35771179 C-32.47405237 201.66551622 -32.46530815 195.97377551 -32.44942904 190.28157234 C-32.4367364 184.31383193 -32.44851949 178.34612946 -32.45635986 172.37838745 C-32.4654466 162.35817501 -32.453494 152.33814706 -32.42965698 142.31796265 C-32.40244776 130.74688414 -32.4112626 119.17624619 -32.43878901 107.60517836 C-32.46150676 97.65581994 -32.46466707 87.70659386 -32.45159566 77.75721788 C-32.44381588 71.8213126 -32.44271919 65.88561414 -32.45927811 59.94972229 C-32.47376225 54.36807402 -32.46362859 48.78699166 -32.43480682 43.20540428 C-32.42821714 41.16165797 -32.43005724 39.11786372 -32.44112015 37.07413673 C-32.54677644 15.56632765 -32.54677644 15.56632765 -25.02251625 7.49897003 C-17.54969138 0.32232245 -9.91909855 -0.05517843 0 0 Z M-13.77780151 16.38095093 C-13.77780151 76.77095093 -13.77780151 137.16095093 -13.77780151 199.38095093 C91.82219849 199.38095093 197.42219849 199.38095093 306.22219849 199.38095093 C306.22219849 138.99095093 306.22219849 78.60095093 306.22219849 16.38095093 C200.62219849 16.38095093 95.02219849 16.38095093 -13.77780151 16.38095093 Z " fill="#DAECFD" transform="translate(109.77780151367188,109.61904907226563)"/>
<path d="M0 0 C0.74330566 0.19835449 1.48661133 0.39670898 2.25244141 0.60107422 C20.53889101 5.62096222 37.64887285 14.61588048 52 27 C52.91136719 27.78503906 53.82273437 28.57007813 54.76171875 29.37890625 C57.21515544 31.54629203 59.61637408 33.75633788 62 36 C62.90105469 36.82177734 62.90105469 36.82177734 63.8203125 37.66015625 C71.58014599 45.00492888 77.8949629 53.99495448 83.6875 62.9375 C84.35136719 63.95714844 85.01523437 64.97679687 85.69921875 66.02734375 C87.29441106 69.67281326 87.16581637 71.22334278 86 75 C81.74458456 83.36226277 76.09514565 90.89863486 70 98 C68.93458984 99.24910156 68.93458984 99.24910156 67.84765625 100.5234375 C44.76651637 126.89029325 12.1118541 144.02974745 -23 147 C-37.59778394 147.63452648 -51.79762623 147.6174374 -66 144 C-67.17433594 143.74476563 -68.34867187 143.48953125 -69.55859375 143.2265625 C-105.92424558 134.69296498 -135.13906568 111.02364923 -155 80 C-155.61536621 79.07670898 -155.61536621 79.07670898 -156.24316406 78.13476562 C-157.86915734 75.55714131 -158.99514432 73.61472958 -159.01953125 70.52734375 C-157.58870089 66.98041944 -155.72677021 63.78319963 -153.6875 60.5625 C-153.24817139 59.86455322 -152.80884277 59.16660645 -152.35620117 58.44750977 C-147.56910343 51.04195751 -141.95717429 44.47941614 -136 38 C-135.39800781 37.32710937 -134.79601562 36.65421875 -134.17578125 35.9609375 C-101.03625874 0.73454329 -46.0233499 -12.72986274 0 0 Z " fill="#AADCFE" transform="translate(292,144)"/>
<path d="M0 0 C52.47 0 104.94 0 159 0 C159 60.06 159 120.12 159 182 C106.53 182 54.06 182 0 182 C0 176.06 0 170.12 0 164 C1.27230469 163.91363281 2.54460937 163.82726562 3.85546875 163.73828125 C33.02196658 161.51042094 60.86082753 153.42563734 84 135 C84.51272461 134.59410645 85.02544922 134.18821289 85.55371094 133.77001953 C97.0384479 124.60637205 107.08290275 114.46000305 115 102 C115.66515625 100.97261719 116.3303125 99.94523437 117.015625 98.88671875 C120.71085556 93.59068901 120.71085556 93.59068901 121.87890625 87.5 C118.6367213 78.27778502 112.30476033 70.33002042 106 63 C105.30003906 62.17757812 104.60007812 61.35515625 103.87890625 60.5078125 C79.45586216 32.55844654 45.38805768 16.02220756 8.4375 13.3125 C6.95056641 13.24482422 6.95056641 13.24482422 5.43359375 13.17578125 C3 13 3 13 0 12 C0 8.04 0 4.08 0 0 Z " fill="#F82814" transform="translate(256,127)"/>
<path d="M0 0 C0.65849493 -0.00170885 1.31698985 -0.0034177 1.99543917 -0.00517833 C4.18804122 -0.00845606 6.38033294 0.00250175 8.57290649 0.01345825 C10.15012607 0.01402274 11.72734616 0.01370507 13.30456543 0.01257324 C17.57684741 0.01200019 21.84901673 0.02374682 26.12127256 0.03772116 C30.58957057 0.05023641 35.05787125 0.05139964 39.52618408 0.05377197 C47.98334212 0.0599844 56.44044836 0.07639202 64.8975836 0.09647095 C74.52752016 0.11883732 84.1574592 0.12982524 93.78741527 0.13986182 C113.5930579 0.16075845 133.39865094 0.19633341 153.20425415 0.24050903 C153.20425415 5.19050903 153.20425415 10.14050903 153.20425415 15.24050903 C100.40425415 15.24050903 47.60425415 15.24050903 -6.79574585 15.24050903 C-6.79574585 75.63050903 -6.79574585 136.02050903 -6.79574585 198.24050903 C46.00425415 198.24050903 98.80425415 198.24050903 153.20425415 198.24050903 C153.20425415 215.73050903 153.20425415 233.22050903 153.20425415 251.24050903 C132.36789067 251.35346492 111.53177587 251.44553316 90.69518375 251.49956989 C81.01995428 251.52532923 71.34492883 251.56043628 61.66983032 251.6177063 C53.23500426 251.66761086 44.80032599 251.69981655 36.36535639 251.71095151 C31.90084084 251.71745835 27.43674803 251.73270363 22.97236824 251.76915932 C18.76570743 251.80323047 14.55964137 251.81353975 10.35285568 251.80604744 C8.81338577 251.80741705 7.27389488 251.81728352 5.73454475 251.83653641 C-4.06339693 251.95301536 -11.62528203 251.26814236 -18.9168396 244.17800903 C-19.35125366 243.53863403 -19.78566772 242.89925903 -20.23324585 242.24050903 C-20.68570679 241.60113403 -21.13816772 240.96175903 -21.6043396 240.30300903 C-24.63062822 235.06405694 -25.08762035 230.52531126 -25.06990051 224.54429626 C-25.07513719 223.66911604 -25.08037387 222.79393582 -25.08576924 221.89223498 C-25.10076993 218.95985886 -25.10147441 216.02765722 -25.10214233 213.09524536 C-25.10976386 210.99253037 -25.11819135 208.88981817 -25.12736511 206.78710938 C-25.14931992 201.07410093 -25.15811057 195.36114601 -25.16319156 189.64810014 C-25.16683452 186.07751916 -25.17307433 182.50695221 -25.18019295 178.93637657 C-25.20469263 166.47581745 -25.21774009 154.01529999 -25.22128296 141.55471802 C-25.22491673 129.94685666 -25.25479961 118.33925996 -25.29668754 106.73147947 C-25.33140333 96.76101966 -25.34683164 86.79064749 -25.34752899 76.82012767 C-25.34832148 70.86734335 -25.35704723 64.91482849 -25.38552666 58.9621067 C-25.41172843 53.36006122 -25.41390035 47.75850816 -25.39787102 42.15642929 C-25.39605813 40.10460396 -25.40273272 38.05275018 -25.41868973 36.0009861 C-25.57617507 14.42966842 -25.57617507 14.42966842 -18.01097775 6.32954121 C-12.75391227 1.27509396 -7.21687833 -0.01132948 0 0 Z " fill="#FEFEFE" transform="translate(102.79574584960938,110.75949096679688)"/>
<path d="M0 0 C0.74330566 0.19835449 1.48661133 0.39670898 2.25244141 0.60107422 C20.53889101 5.62096222 37.64887285 14.61588048 52 27 C52.91136719 27.78503906 53.82273437 28.57007813 54.76171875 29.37890625 C57.21515544 31.54629203 59.61637408 33.75633788 62 36 C62.90105469 36.82177734 62.90105469 36.82177734 63.8203125 37.66015625 C71.58014599 45.00492888 77.8949629 53.99495448 83.6875 62.9375 C84.35136719 63.95714844 85.01523437 64.97679687 85.69921875 66.02734375 C87.29441106 69.67281326 87.16581637 71.22334278 86 75 C81.74458456 83.36226277 76.09514565 90.89863486 70 98 C68.93458984 99.24910156 68.93458984 99.24910156 67.84765625 100.5234375 C44.76651637 126.89029325 12.1118541 144.02974745 -23 147 C-37.59778394 147.63452648 -51.79762623 147.6174374 -66 144 C-67.17433594 143.74476563 -68.34867187 143.48953125 -69.55859375 143.2265625 C-105.92424558 134.69296498 -135.13906568 111.02364923 -155 80 C-155.61536621 79.07670898 -155.61536621 79.07670898 -156.24316406 78.13476562 C-157.86915734 75.55714131 -158.99514432 73.61472958 -159.01953125 70.52734375 C-157.58870089 66.98041944 -155.72677021 63.78319963 -153.6875 60.5625 C-153.24817139 59.86455322 -152.80884277 59.16660645 -152.35620117 58.44750977 C-147.56910343 51.04195751 -141.95717429 44.47941614 -136 38 C-135.39800781 37.32710937 -134.79601562 36.65421875 -134.17578125 35.9609375 C-101.03625874 0.73454329 -46.0233499 -12.72986274 0 0 Z M-89.75 28.1875 C-101.98507074 43.8650548 -105.54098423 60.50351896 -104 80 C-102.14295812 92.61603875 -97.41359555 103.64768188 -90 114 C-89.32710937 114.95132813 -89.32710937 114.95132813 -88.640625 115.921875 C-78.41089308 129.04000182 -61.18551216 137.48033492 -45 140 C-26.24112862 142.06365299 -7.68225268 136.83055347 7.1940918 125.1418457 C20.37660582 114.22630286 29.64726455 99.07301694 32 82 C33.83520787 60.81256349 30.1859529 44.09977629 16.765625 27.18359375 C5.65122672 14.32538471 -10.98729443 4.15939706 -28.21923828 2.82861328 C-52.62988988 1.45646023 -73.45410382 9.44171402 -89.75 28.1875 Z " fill="#DAECFD" transform="translate(292,144)"/>
<path d="M0 0 C17.145825 -0.0309404 34.2916508 -0.05109589 51.4375 -0.0625 C52.71532097 -0.06335602 53.99314194 -0.06421204 55.30968475 -0.06509399 C92.08447445 -0.08683017 128.85288897 0.04480826 165.625 0.5 C166.59165966 0.51195782 167.55831932 0.52391563 168.5542717 0.53623581 C180.03636459 0.67928825 191.51814794 0.83754833 203 1 C203 14.53 203 28.06 203 42 C207.29 42 211.58 42 216 42 C216 50.91 216 59.82 216 69 C177.72 69 139.44 69 100 69 C100 60.09 100 51.18 100 42 C104.29 42 108.58 42 113 42 C113 28.47 113 14.94 113 1 C75.71 1 38.42 1 0 1 C0 0.67 0 0.34 0 0 Z " fill="#A7D7F9" transform="translate(98,362)"/>
<path d="M0 0 C0 2.31 0 4.62 0 7 C-0.94359375 7.09796875 -1.8871875 7.1959375 -2.859375 7.296875 C-21.77772583 9.50021706 -38.61793433 16.17915988 -51.48046875 30.82421875 C-61.75544725 43.99064848 -67.21060447 56.91131529 -67.3125 73.5625 C-67.32095947 74.87432251 -67.32095947 74.87432251 -67.32958984 76.21264648 C-67.15767693 91.75036841 -61.9418064 105.37257785 -53 118 C-51.9171875 119.546875 -51.9171875 119.546875 -50.8125 121.125 C-38.13979056 135.45427276 -18.67245863 142.68965203 0 144 C0 146.31 0 148.62 0 151 C-10.41266576 151.43928434 -19.88427384 150.28987831 -30 148 C-31.19109375 147.74476563 -32.3821875 147.48953125 -33.609375 147.2265625 C-69.96421559 138.57442795 -99.11329408 115.06390559 -119 84 C-119.61536621 83.07670898 -119.61536621 83.07670898 -120.24316406 82.13476562 C-121.86915734 79.55714131 -122.99514432 77.61472958 -123.01953125 74.52734375 C-121.58870089 70.98041944 -119.72677021 67.78319963 -117.6875 64.5625 C-117.24817139 63.86455322 -116.80884277 63.16660645 -116.35620117 62.44750977 C-111.56910343 55.04195751 -105.95717429 48.47941614 -100 42 C-99.39800781 41.32710937 -98.79601562 40.65421875 -98.17578125 39.9609375 C-73.54500901 13.77910907 -35.64815956 -1.19491038 0 0 Z " fill="#FEFDFD" transform="translate(256,140)"/>
<path d="M0 0 C11.79800885 -0.50341613 20.85928921 2.771833 29.91796875 10.33984375 C38.73012964 18.7841013 43.20735517 28.98207687 44.1953125 41.03515625 C43.83351485 52.38655756 39.35371077 63.16082907 31.7265625 71.52734375 C23.39405149 79.18901701 13.55934724 83.17700902 2.2578125 83.53515625 C-9.09365662 83.02474847 -19.82055646 79.28224068 -28.1171875 71.22265625 C-36.01489035 62.49473665 -39.54698389 53.15476316 -39.6171875 41.47265625 C-39.62347168 40.68076904 -39.62975586 39.88888184 -39.63623047 39.07299805 C-39.41657645 28.87614674 -34.8834441 19.54636977 -28.11328125 11.984375 C-19.92319261 4.20452335 -11.13545463 0.79538962 0 0 Z " fill="#1B3B6C" transform="translate(254.1171875,173.77734375)"/>
<path d="M0 0 C18.21020207 0 35.25202179 6.49885718 48.5390625 19.14990234 C62.6258604 33.4367968 68.42758617 50.61351015 68.29101562 70.35571289 C67.97873123 88.53615841 60.74573402 104.93402141 48 118 C36.85300842 128.67385951 21.89322582 136.1253027 6.375 136.1875 C4.27125 136.125625 2.1675 136.06375 0 136 C0 127.42 0 118.84 0 110 C3.155625 109.4121875 3.155625 109.4121875 6.375 108.8125 C17.35495592 106.45014585 26.49766807 102.19297729 33.125 92.8125 C40.01313284 81.9650467 42.6016497 70.82178047 39.9375 58.1875 C37.01988312 47.38959082 30.54172292 38.51651203 20.92578125 32.7578125 C13.91459983 29.09864353 8.0293538 27.89215042 0 27 C0 18.09 0 9.18 0 0 Z " fill="#78BDFE" transform="translate(256,147)"/>
<path d="M0 0 C38.28 0 76.56 0 116 0 C116 8.91 116 17.82 116 27 C77.72 27 39.44 27 0 27 C0 18.09 0 9.18 0 0 Z " fill="#DAEDFE" transform="translate(198,404)"/>
<path d="M0 0 C0 27.39 0 54.78 0 83 C-13.23470577 81.79684493 -21.95738202 78.73820398 -31 69 C-32.2375 67.7315625 -32.2375 67.7315625 -33.5 66.4375 C-39.53557797 58.81159514 -41.45092722 50.78586054 -41.5 41.25 C-41.50620361 40.45827393 -41.51240723 39.66654785 -41.51879883 38.85083008 C-41.30025716 28.65399551 -36.76606607 19.3235007 -29.99609375 11.76171875 C-21.31530488 3.51574578 -11.89956011 0 0 0 Z " fill="#2D5396" transform="translate(256,174)"/>
<path d="M0 0 C14.85 0 29.7 0 45 0 C45 13.53 45 27.06 45 41 C30.15 41 15.3 41 0 41 C0 27.47 0 13.94 0 0 Z " fill="#77BDFE" transform="translate(256,363)"/>
<path d="M0 0 C19.14 0 38.28 0 58 0 C58 8.58 58 17.16 58 26 C38.86 26 19.72 26 0 26 C0 17.42 0 8.84 0 0 Z " fill="#FEFEFF" transform="translate(198,405)"/>
</svg>
