<?xml version="1.0" encoding="UTF-8"?>
<svg version="1.1" xmlns="http://www.w3.org/2000/svg" width="55" height="55">
<path d="M0 0 C1 1 1 1 1.09765625 2.84765625 C1.06510417 4.8984375 1.03255208 6.94921875 1 9 C2.0725 8.319375 3.145 7.63875 4.25 6.9375 C7.66157733 4.96528998 7.66157733 4.96528998 10.4375 5.25 C10.953125 5.4975 11.46875 5.745 12 6 C12 8.64 12 11.28 12 14 C10.88625 14.5775 9.7725 15.155 8.625 15.75 C5.66807857 17.42260202 4.07684279 18.64982242 3 22 C2.34 22 1.68 22 1 22 C1.33 22.99 1.66 23.98 2 25 C2.99 25 3.98 25 5 25 C5.75 27.75 5.75 27.75 6 31 C4.125 33.1875 4.125 33.1875 2 35 C1.67 35.99 1.34 36.98 1 38 C2.19625 37.79375 3.3925 37.5875 4.625 37.375 C8.57529208 36.88471552 11.34427929 37.25918062 15 39 C17 42 17 42 17 46 C16.34 46 15.68 46 15 46 C15 46.99 15 47.98 15 49 C9.16524985 49.85330338 4.55139349 50.48351814 -1 48 C-1.33 45.69 -1.66 43.38 -2 41 C-3.09699219 41.67289063 -4.19398437 42.34578125 -5.32421875 43.0390625 C-6.77807833 43.90199851 -8.23253719 44.76392541 -9.6875 45.625 C-10.7693457 46.29402344 -10.7693457 46.29402344 -11.87304688 46.9765625 C-17.3107771 50.15477925 -17.3107771 50.15477925 -20.95703125 49.3359375 C-23 48 -23 48 -24 47 C-24.38885647 41.8200615 -24.48519786 36.63889334 -24.56982422 31.44604492 C-24.60643042 29.69882768 -24.66094949 27.95188851 -24.73388672 26.20581055 C-25.33133165 11.68679754 -25.33133165 11.68679754 -22.09716797 7.58911133 C-19.77559736 6.04560765 -17.58199151 5.03075762 -15 4 C-13.60344444 3.05183074 -12.22451114 2.07650792 -10.875 1.0625 C-7.03265855 -1.347626 -4.41172436 -1.26049267 0 0 Z M4 43 C5.98 43.99 5.98 43.99 8 45 C8.66 44.34 9.32 43.68 10 43 C8.02 43 6.04 43 4 43 Z " fill="#E0DFE4" transform="translate(31,3)"/>
<path d="M0 0 C1 1 1 1 1.09765625 3.06640625 C1.08605469 3.89011719 1.07445313 4.71382813 1.0625 5.5625 C1.05347656 6.38878906 1.04445313 7.21507812 1.03515625 8.06640625 C1.02355469 8.70449219 1.01195313 9.34257812 1 10 C0.67 10 0.34 10 0 10 C0 7.36 0 4.72 0 2 C-1.299375 2.86625 -1.299375 2.86625 -2.625 3.75 C-3.17542969 4.11351562 -3.72585937 4.47703125 -4.29296875 4.8515625 C-5.86447935 5.90882592 -7.40288887 7.01485578 -8.9375 8.125 C-12 10 -12 10 -19 12 C-19 23.55 -19 35.1 -19 47 C-8.25895184 42.04244253 -8.25895184 42.04244253 1 35 C1 35.99 1 36.98 1 38 C2.19625 37.79375 3.3925 37.5875 4.625 37.375 C8.57529208 36.88471552 11.34427929 37.25918062 15 39 C17 42 17 42 17 46 C16.34 46 15.68 46 15 46 C15 46.99 15 47.98 15 49 C9.16524985 49.85330338 4.55139349 50.48351814 -1 48 C-1.33 45.69 -1.66 43.38 -2 41 C-3.09699219 41.67289063 -4.19398437 42.34578125 -5.32421875 43.0390625 C-6.77807833 43.90199851 -8.23253719 44.76392541 -9.6875 45.625 C-10.7693457 46.29402344 -10.7693457 46.29402344 -11.87304688 46.9765625 C-17.3107771 50.15477925 -17.3107771 50.15477925 -20.95703125 49.3359375 C-23 48 -23 48 -24 47 C-24.38885647 41.8200615 -24.48519786 36.63889334 -24.56982422 31.44604492 C-24.60643042 29.69882768 -24.66094949 27.95188851 -24.73388672 26.20581055 C-25.33133165 11.68679754 -25.33133165 11.68679754 -22.09716797 7.58911133 C-19.77559736 6.04560765 -17.58199151 5.03075762 -15 4 C-13.60344444 3.05183074 -12.22451114 2.07650792 -10.875 1.0625 C-7.03265855 -1.347626 -4.41172436 -1.26049267 0 0 Z M4 43 C5.98 43.99 5.98 43.99 8 45 C8.66 44.34 9.32 43.68 10 43 C8.02 43 6.04 43 4 43 Z " fill="#4F5F77" transform="translate(31,3)"/>
<path d="M0 0 C0.08090971 1.62418745 0.13914995 3.24951745 0.1875 4.875 C0.23970703 6.23238281 0.23970703 6.23238281 0.29296875 7.6171875 C0.19628906 8.40351563 0.09960938 9.18984375 0 10 C-3 12 -3 12 -6 12 C-6 10.68 -6 9.36 -6 8 C-8.03241727 8.63979849 -8.03241727 8.63979849 -10 10 C-10.81171228 12.55519921 -10.81171228 12.55519921 -11 15 C-10.34 15.33 -9.68 15.66 -9 16 C-9.66 16 -10.32 16 -11 16 C-11 16.66 -11 17.32 -11 18 C-11.66 17.67 -12.32 17.34 -13 17 C-12.67 15.35 -12.34 13.7 -12 12 C-13.65 12.33 -15.3 12.66 -17 13 C-17 14.65 -17 16.3 -17 18 C-16.01 18.33 -15.02 18.66 -14 19 C-14.66 19.33 -15.32 19.66 -16 20 C-16.65555119 22.52733235 -16.65555119 22.52733235 -17 25 C-16.34 25.33 -15.68 25.66 -15 26 C-15.66 26 -16.32 26 -17 26 C-17 27.98 -17 29.96 -17 32 C-13.87802522 30.6910428 -13.87802522 30.6910428 -12 28 C-10.35767228 27.27544365 -8.68375165 26.62225605 -7 26 C-5.7264543 25.46474166 -4.45565616 24.9229052 -3.1875 24.375 C-2.135625 23.92125 -1.08375 23.4675 0 23 C0 23.66 0 24.32 0 25 C0.99 24.34 1.98 23.68 3 23 C3.99 23 4.98 23 6 23 C6.75 25.75 6.75 25.75 7 29 C5.1875 31.375 5.1875 31.375 3 33 C2.34 33 1.68 33 1 33 C0.81308594 33.57234375 0.62617188 34.1446875 0.43359375 34.734375 C-1.63528731 38.00399629 -4.62749494 39.44271716 -7.9375 41.25 C-8.57107422 41.61351562 -9.20464844 41.97703125 -9.85742188 42.3515625 C-12.76316549 43.97706787 -14.61995588 45 -18 45 C-18 33.45 -18 21.9 -18 10 C-15.03 8.68 -12.06 7.36 -9 6 C-6.46581039 4.398167 -6.46581039 4.398167 -4.5 2.75 C-1.06930693 0 -1.06930693 0 0 0 Z " fill="#ECEBF9" transform="translate(30,5)"/>
<path d="M0 0 C2.0625 1.8125 2.0625 1.8125 3 4 C3 5.32 3 6.64 3 8 C2.34 8 1.68 8 1 8 C1 8.99 1 9.98 1 11 C-4.83475015 11.85330338 -9.44860651 12.48351814 -15 10 C-16.25 3.375 -16.25 3.375 -14 0 C-9.54239771 -1.62094629 -4.5427388 -1.13787292 0 0 Z M-10 5 C-8.02 5.99 -8.02 5.99 -6 7 C-5.34 6.34 -4.68 5.68 -4 5 C-5.98 5 -7.96 5 -10 5 Z " fill="#F0496D" transform="translate(45,41)"/>
<path d="M0 0 C0.33 0 0.66 0 1 0 C1 11.55 1 23.1 1 35 C11.74104816 30.04244253 11.74104816 30.04244253 21 23 C20.6371135 25.63659719 20.28667515 26.74979914 18.25 28.52734375 C15.84313041 30.03581583 13.43280246 31.5336022 11 33 C9.80117188 33.77537109 9.80117188 33.77537109 8.578125 34.56640625 C2.74872752 38.1559849 2.74872752 38.1559849 -1 37.375 C-3 36 -3 36 -4 35 C-4.08737645 33.14630389 -4.10698153 31.28932459 -4.09765625 29.43359375 C-4.09443359 28.30888672 -4.09121094 27.18417969 -4.08789062 26.02539062 C-4.07951172 24.84138672 -4.07113281 23.65738281 -4.0625 22.4375 C-4.05798828 21.24962891 -4.05347656 20.06175781 -4.04882812 18.83789062 C-4.03699675 15.89187774 -4.02051287 12.94596319 -4 10 C-3.71125 10.639375 -3.4225 11.27875 -3.125 11.9375 C-2.17176549 14.15206079 -2.17176549 14.15206079 0 15 C0 10.05 0 5.1 0 0 Z " fill="#3E4B64" transform="translate(11,15)"/>
<path d="M0 0 C0.08090971 1.62418745 0.13914995 3.24951745 0.1875 4.875 C0.23970703 6.23238281 0.23970703 6.23238281 0.29296875 7.6171875 C0.19628906 8.40351563 0.09960938 9.18984375 0 10 C-3 12 -3 12 -6 12 C-6 10.68 -6 9.36 -6 8 C-8.03241727 8.63979849 -8.03241727 8.63979849 -10 10 C-10.81171228 12.55519921 -10.81171228 12.55519921 -11 15 C-10.34 15.33 -9.68 15.66 -9 16 C-9.66 16 -10.32 16 -11 16 C-11 16.66 -11 17.32 -11 18 C-11.66 17.67 -12.32 17.34 -13 17 C-12.67 15.35 -12.34 13.7 -12 12 C-13.65 12.33 -15.3 12.66 -17 13 C-17 14.65 -17 16.3 -17 18 C-16.01 18.33 -15.02 18.66 -14 19 C-15.98 19.99 -15.98 19.99 -18 21 C-18 17.37 -18 13.74 -18 10 C-16.68 9.46375 -15.36 8.9275 -14 8.375 C-9.69454166 6.48114333 -6.1909637 4.10545503 -2.53125 1.171875 C-1 0 -1 0 0 0 Z " fill="#EFEDF2" transform="translate(30,5)"/>
<path d="M0 0 C0.33 1.32 0.66 2.64 1 4 C1.66 4.33 2.32 4.66 3 5 C2.34 5 1.68 5 1 5 C1 6.98 1 8.96 1 11 C4.12197478 9.6910428 4.12197478 9.6910428 6 7 C7.64232772 6.27544365 9.31624835 5.62225605 11 5 C12.2735457 4.46474166 13.54434384 3.9229052 14.8125 3.375 C15.864375 2.92125 16.91625 2.4675 18 2 C18 2.99 18 3.98 18 5 C17.01257813 5.49628906 16.02515625 5.99257813 15.0078125 6.50390625 C13.71290152 7.18889539 12.41866531 7.87516119 11.125 8.5625 C10.14853516 9.04686523 10.14853516 9.04686523 9.15234375 9.54101562 C5.46703265 11.51069957 5.46703265 11.51069957 3.10839844 14.83935547 C2.46194403 16.97032648 2.46194403 16.97032648 2 20 C4.31 19.34 6.62 18.68 9 18 C7.74464015 21.76607955 6.47116415 22.26441793 3 24 C2.01 24 1.02 24 0 24 C0 16.08 0 8.16 0 0 Z " fill="#FBFBFB" transform="translate(12,26)"/>
<path d="M0 0 C0 2.64 0 5.28 0 8 C-1.6396875 8.8971875 -1.6396875 8.8971875 -3.3125 9.8125 C-5.91074129 11.29044697 -8.04349493 12.69822933 -10 15 C-10 14.34 -10 13.68 -10 13 C-10.66 13 -11.32 13 -12 13 C-12.625 9.875 -12.625 9.875 -12 6 C-8.70773563 3.25048211 -4.42493518 0 0 0 Z " fill="#E7EAF1" transform="translate(43,9)"/>
<path d="M0 0 C0 6 0 12 0 18 C-1.65 18.66 -3.3 19.32 -5 20 C-5 13.66666667 -5 7.33333333 -5 1 C-3 0 -3 0 0 0 Z " fill="#73DB62" transform="translate(18,17)"/>
<path d="M0 0 C0.33 0.99 0.66 1.98 1 3 C0.34 3 -0.32 3 -1 3 C-1 4.65 -1 6.3 -1 8 C-1.99 7.67 -2.98 7.34 -4 7 C-6.02518491 7.9479589 -8.02477154 8.95191959 -10 10 C-12.375 10.6875 -12.375 10.6875 -14 11 C-14.5 8.8125 -14.5 8.8125 -14 6 C-9.94332793 2.58634355 -5.37168898 0 0 0 Z " fill="#80DC72" transform="translate(33,22)"/>
<path d="M0 0 C0.1875 3.375 0.1875 3.375 0 7 C-3 9 -3 9 -7 9 C-7.25 6.1875 -7.25 6.1875 -7 3 C-4.54157496 0.45680168 -3.57478534 0 0 0 Z " fill="#74B2FD" transform="translate(21,37)"/>
<path d="M0 0 C0.99 0.33 1.98 0.66 3 1 C3 1.99 3 2.98 3 4 C7.29 4 11.58 4 16 4 C16.33 2.68 16.66 1.36 17 0 C17.66 0 18.32 0 19 0 C19 0.99 19 1.98 19 3 C18.34 3 17.68 3 17 3 C17 3.99 17 4.98 17 6 C11.16524985 6.85330338 6.55139349 7.48351814 1 5 C0.67 3.35 0.34 1.7 0 0 Z " fill="#E73564" transform="translate(29,46)"/>
<path d="M0 0 C0.33 0 0.66 0 1 0 C1.33 2.31 1.66 4.62 2 7 C3.093125 6.319375 4.18625 5.63875 5.3125 4.9375 C7.17578125 3.77734375 7.17578125 3.77734375 9 3 C9.99 3.33 10.98 3.66 12 4 C10.54550599 5.0055761 9.08627557 6.00430435 7.625 7 C6.40683594 7.8353125 6.40683594 7.8353125 5.1640625 8.6875 C3 10 3 10 1 10 C1 12.31 1 14.62 1 17 C0.01 17 -0.98 17 -2 17 C-1.34 11.39 -0.68 5.78 0 0 Z " fill="#B7B9D1" transform="translate(30,5)"/>
<path d="M0 0 C0 1.32 0 2.64 0 4 C-2.31 5.32 -4.62 6.64 -7 8 C-7 9.32 -7 10.64 -7 12 C-7.33 11.34 -7.66 10.68 -8 10 C-8.66 10 -9.32 10 -10 10 C-10 7.69 -10 5.38 -10 3 C-9.236875 2.87625 -8.47375 2.7525 -7.6875 2.625 C-4.74036043 1.9396187 -2.98146361 0 0 0 Z " fill="#DBDFE9" transform="translate(41,12)"/>
<path d="M0 0 C1.32 0.66 2.64 1.32 4 2 C4 4.97 4 7.94 4 11 C3.67 11 3.34 11 3 11 C3 8.36 3 5.72 3 3 C2.13375 3.5775 1.2675 4.155 0.375 4.75 C-0.16898438 5.1109375 -0.71296875 5.471875 -1.2734375 5.84375 C-2.94370916 6.96230297 -4.59721614 8.10576502 -6.25 9.25 C-9 11 -9 11 -11 11 C-9.74572784 7.23718351 -8.09023309 6.84175127 -4.72265625 5.05078125 C-2.55143717 3.72638684 -1.3117717 2.16056516 0 0 Z " fill="#323F57" transform="translate(28,2)"/>
<path d="M0 0 C0.99 0 1.98 0 3 0 C3 4.29 3 8.58 3 13 C2.01 12.67 1.02 12.34 0 12 C-0.76173392 7.6835078 -1.16063604 4.25566547 0 0 Z " fill="#9EA6BD" transform="translate(8,17)"/>
<path d="M0 0 C-2.31 0.33 -4.62 0.66 -7 1 C-6.34 2.65 -5.68 4.3 -5 6 C-6.32 6.33 -7.64 6.66 -9 7 C-9.33 6.01 -9.66 5.02 -10 4 C-10.66 3.67 -11.32 3.34 -12 3 C-11 1 -11 1 -9 -1 C-5.25047566 -2.18406032 -3.33570091 -2.10025613 0 0 Z " fill="#F3506F" transform="translate(41,43)"/>
<path d="M0 0 C0.1875 2.375 0.1875 2.375 0 5 C-3 7 -3 7 -6 7 C-6.1875 4.625 -6.1875 4.625 -6 2 C-3 0 -3 0 0 0 Z " fill="#FECF67" transform="translate(30,10)"/>
<path d="M0 0 C0 1.65 0 3.3 0 5 C-1.65 5.66 -3.3 6.32 -5 7 C-5 5.02 -5 3.04 -5 1 C-3 0 -3 0 0 0 Z " fill="#ED5173" transform="translate(18,30)"/>
<path d="M0 0 C0.125 2.375 0.125 2.375 0 5 C-0.66 5.66 -1.32 6.32 -2 7 C-2.99 7 -3.98 7 -5 7 C-5.1875 4.625 -5.1875 4.625 -5 2 C-2 0 -2 0 0 0 Z " fill="#FECB59" transform="translate(24,26)"/>
<path d="M0 0 C0.66 0 1.32 0 2 0 C2 1.98 2 3.96 2 6 C0.35 6.33 -1.3 6.66 -3 7 C-2.25 2.25 -2.25 2.25 0 0 Z " fill="#AC89FA" transform="translate(27,16)"/>
<path d="M0 0 C0.125 2.375 0.125 2.375 0 5 C-0.66 5.66 -1.32 6.32 -2 7 C-2.99 7 -3.98 7 -5 7 C-5.1875 4.625 -5.1875 4.625 -5 2 C-2 0 -2 0 0 0 Z " fill="#5BA4FE" transform="translate(24,13)"/>
<path d="M0 0 C0 1.65 0 3.3 0 5 C-1.65 5.33 -3.3 5.66 -5 6 C-5 4.35 -5 2.7 -5 1 C-3 0 -3 0 0 0 Z " fill="#ED4D70" transform="translate(18,17)"/>
<path d="M0 0 C0.33 1.32 0.66 2.64 1 4 C-1.64 4 -4.28 4 -7 4 C-7 3.01 -7 2.02 -7 1 C-4.53721199 -0.231394 -2.7204945 -0.07159196 0 0 Z " fill="#E93866" transform="translate(41,43)"/>
<path d="M0 0 C0.99 0 1.98 0 3 0 C3.33 0.99 3.66 1.98 4 3 C3.34 3 2.68 3 2 3 C2 4.65 2 6.3 2 8 C1.34 8 0.68 8 0 8 C0 5.36 0 2.72 0 0 Z " fill="#788093" transform="translate(30,22)"/>
</svg>
