<?xml version="1.0" encoding="UTF-8"?>
<svg version="1.1" xmlns="http://www.w3.org/2000/svg" width="58" height="58">
<path d="M0 0 C0.85722656 0.01804688 1.71445312 0.03609375 2.59765625 0.0546875 C3.75587891 0.08949219 3.75587891 0.08949219 4.9375 0.125 C6.87514175 0.125 8.81296348 0.10311341 10.75 0.0546875 C11.801875 0.03664062 12.85375 0.01859375 13.9375 0 C14.989375 -0.02320312 16.04125 -0.04640625 17.125 -0.0703125 C19.9375 0.125 19.9375 0.125 22.9375 2.125 C24.67969181 2.4246126 26.43177432 2.66902101 28.1875 2.875 C33.79323558 3.81052673 37.32437074 5.72182789 40.9375 10.125 C44.26717155 15.4763398 43.30634654 21.91422348 43.3125 28 C43.33699219 29.26714844 43.36148438 30.53429687 43.38671875 31.83984375 C43.42301933 43.34712838 43.42301933 43.34712838 38.9375 48.125 C36.53310145 50.45183731 35.54698855 51.08344396 32.1875 51.3125 C31.07375 51.2196875 31.07375 51.2196875 29.9375 51.125 C29.793125 52.094375 29.64875 53.06375 29.5 54.0625 C28.9375 57.125 28.9375 57.125 27.9375 58.125 C24.84668535 58.2261692 21.77867445 58.26468558 18.6875 58.2578125 C17.75905273 58.25876923 16.83060547 58.25972595 15.87402344 58.26071167 C13.90690035 58.26139355 11.93977504 58.25953872 9.97265625 58.25537109 C6.95046974 58.25002295 3.92843185 58.25531582 0.90625 58.26171875 C-1.00000033 58.26105797 -2.90625057 58.25977681 -4.8125 58.2578125 C-6.17810059 58.26084885 -6.17810059 58.26084885 -7.57128906 58.26394653 C-13.94755031 58.23994969 -13.94755031 58.23994969 -15.0625 57.125 C-15.10330783 55.12541636 -15.10504356 53.12454746 -15.0625 51.125 C-14.4025 51.125 -13.7425 51.125 -13.0625 51.125 C-13.38992188 49.91585937 -13.71734375 48.70671875 -14.0546875 47.4609375 C-15.43691895 41.23723926 -15.27987532 35.09547361 -15.1875 28.75 C-15.17847656 27.57566406 -15.16945313 26.40132812 -15.16015625 25.19140625 C-15.14279138 23.03071977 -15.12130128 20.87005942 -15.09423828 18.70947266 C-15.07137984 16.84809206 -15.0625 14.98652095 -15.0625 13.125 C-14.8035865 9.15499303 -14.34746766 7.46388046 -11.75 4.375 C-7.76162702 1.03589704 -5.22246729 -0.14178644 0 0 Z M-10.0625 6.125 C-11.47440564 8.72937233 -11.47440564 8.72937233 -12.0625 11.125 C-11.56621094 10.78726562 -11.06992188 10.44953125 -10.55859375 10.1015625 C-7.15688111 7.86818001 -4.09334257 5.95016833 -0.125 4.9375 C1.3909375 4.5353125 1.3909375 4.5353125 2.9375 4.125 C3.2675 3.465 3.5975 2.805 3.9375 2.125 C-2.08833706 1.70942503 -5.32186111 1.94872288 -10.0625 6.125 Z " fill="#A5A1BE" transform="translate(15.0625,-0.125)"/>
<path d="M0 0 C4.62 0 9.24 0 14 0 C14.33 0.99 14.66 1.98 15 3 C15.99 3.66 16.98 4.32 18 5 C18 5.66 18 6.32 18 7 C19.11375 6.95875 20.2275 6.9175 21.375 6.875 C25 7 25 7 27 9 C27.22705078 11.43017578 27.22705078 11.43017578 27.1953125 14.4453125 C27.18886719 15.52167969 27.18242188 16.59804688 27.17578125 17.70703125 C27.15902344 18.83496094 27.14226563 19.96289062 27.125 21.125 C27.11597656 22.26066406 27.10695312 23.39632812 27.09765625 24.56640625 C27.07403098 27.37781299 27.04109013 30.18880298 27 33 C27.99 33.33 28.98 33.66 30 34 C29.34 35.98 28.68 37.96 28 40 C22.03686834 40.02464574 16.07376605 40.042834 10.1105957 40.05493164 C8.08031702 40.05997278 6.05004198 40.06680557 4.01977539 40.07543945 C1.10822653 40.08751467 -1.8032745 40.09323034 -4.71484375 40.09765625 C-6.08514992 40.10539818 -6.08514992 40.10539818 -7.48313904 40.11329651 C-9.65575427 40.11349168 -11.82827296 40.06211805 -14 40 C-15 39 -15 39 -15.0625 35.9375 C-15.041875 34.968125 -15.02125 33.99875 -15 33 C-14.34 33 -13.68 33 -13 33 C-13.01047363 32.28344238 -13.02094727 31.56688477 -13.03173828 30.82861328 C-13.07321299 27.59411095 -13.09929892 24.35966447 -13.125 21.125 C-13.14175781 19.99707031 -13.15851562 18.86914062 -13.17578125 17.70703125 C-13.18222656 16.63066406 -13.18867188 15.55429687 -13.1953125 14.4453125 C-13.20578613 13.45031738 -13.21625977 12.45532227 -13.22705078 11.43017578 C-13 9 -13 9 -11 7 C-7.375 6.875 -7.375 6.875 -4 7 C-3.67 6.01 -3.34 5.02 -3 4 C-2.34 3.67 -1.68 3.34 -1 3 C-0.67 2.01 -0.34 1.02 0 0 Z " fill="#7B8AAD" transform="translate(15,18)"/>
<path d="M0 0 C0.85722656 0.01804688 1.71445312 0.03609375 2.59765625 0.0546875 C3.75587891 0.08949219 3.75587891 0.08949219 4.9375 0.125 C6.86385165 0.125 8.79095665 0.08178701 10.71484375 -0.015625 C11.75769531 -0.05171875 12.80054688 -0.0878125 13.875 -0.125 C14.91527344 -0.17140625 15.95554687 -0.2178125 17.02734375 -0.265625 C20.60311868 0.21434479 21.69712226 1.3825617 23.9375 4.125 C22.720625 4.49625 21.50375 4.8675 20.25 5.25 C15.64108631 6.97425672 13.67298254 9.0632229 10.9375 13.125 C10.30008467 15.23995617 10.30008467 15.23995617 9.9375 17.125 C9.31101562 17.15078125 8.68453125 17.1765625 8.0390625 17.203125 C7.22179687 17.25984375 6.40453125 17.3165625 5.5625 17.375 C4.75039063 17.42140625 3.93828125 17.4678125 3.1015625 17.515625 C0.76885741 17.91081733 0.76885741 17.91081733 -0.27734375 20.06640625 C-0.53644531 20.74574219 -0.79554687 21.42507812 -1.0625 22.125 C-2.25 23.8125 -2.25 23.8125 -4.0625 25.125 C-6.38525177 25.52547444 -8.71989357 25.8647104 -11.0625 26.125 C-13.18175604 28.24425604 -12.48081017 32.7446093 -12.625 35.6875 C-12.66818359 36.49380859 -12.71136719 37.30011719 -12.75585938 38.13085938 C-12.86225262 40.12868805 -12.96290888 42.1268207 -13.0625 44.125 C-15.0625 42.125 -15.0625 42.125 -15.28955078 39.55883789 C-15.27907715 38.49914795 -15.26860352 37.43945801 -15.2578125 36.34765625 C-15.25136719 35.19458984 -15.24492187 34.04152344 -15.23828125 32.85351562 C-15.22152344 31.64373047 -15.20476563 30.43394531 -15.1875 29.1875 C-15.17847656 27.98158203 -15.16945313 26.77566406 -15.16015625 25.53320312 C-15.14266533 23.29561478 -15.12108755 21.05805227 -15.09423828 18.82055664 C-15.07188576 16.92213987 -15.0625 15.02354836 -15.0625 13.125 C-14.8035865 9.15499303 -14.34746766 7.46388046 -11.75 4.375 C-7.76162702 1.03589704 -5.22246729 -0.14178644 0 0 Z M-10.0625 6.125 C-11.47440564 8.72937233 -11.47440564 8.72937233 -12.0625 11.125 C-11.56621094 10.78726562 -11.06992188 10.44953125 -10.55859375 10.1015625 C-7.15688111 7.86818001 -4.09334257 5.95016833 -0.125 4.9375 C1.3909375 4.5353125 1.3909375 4.5353125 2.9375 4.125 C3.2675 3.465 3.5975 2.805 3.9375 2.125 C-2.08833706 1.70942503 -5.32186111 1.94872288 -10.0625 6.125 Z " fill="#E9F1FB" transform="translate(15.0625,-0.125)"/>
<path d="M0 0 C1.65 0 3.3 0 5 0 C5.391875 0.9075 5.78375 1.815 6.1875 2.75 C8.0787372 6.14118394 9.8554673 7.79032837 13 10 C17.42326378 8.64844718 19.40412982 6.80109562 22 3 C22.33 2.01 22.66 1.02 23 0 C24.65 0 26.3 0 28 0 C28 6.6 28 13.2 28 20 C18.76 20 9.52 20 0 20 C0 13.4 0 6.8 0 0 Z " fill="#EEEEEF" transform="translate(8,31)"/>
<path d="M0 0 C4.90547757 5.69668362 4.12388475 12.91103906 4 20 C1.75106046 20.10823773 -0.49937575 20.18569645 -2.75 20.25 C-4.62945312 20.31960937 -4.62945312 20.31960937 -6.546875 20.390625 C-10 20 -10 20 -12.453125 18.171875 C-14 16 -14 16 -14 13 C-18.29 13 -22.58 13 -27 13 C-27 12.67 -27 12.34 -27 12 C-24.03 12 -21.06 12 -18 12 C-17.979375 11.13375 -17.95875 10.2675 -17.9375 9.375 C-16.63894847 4.70021448 -13.86705376 2.74176791 -10 0 C-6.73439029 -1.63280485 -3.39103547 -1.0145311 0 0 Z " fill="#AAA5C3" transform="translate(43,5)"/>
<path d="M0 0 C2.625 1.5625 2.625 1.5625 4 4 C5.03563569 10.86108644 2.44394327 14.5997311 -1.4375 20 C-3 21 -3 21 -5.375 21.0625 C-9.58077526 19.3601624 -11.97175952 16.05648096 -14 12 C-14.56265985 5.0230179 -14.56265985 5.0230179 -12.625 1.5 C-8.52657222 -0.84195873 -4.6009961 -0.74135651 0 0 Z " fill="#A7E49F" transform="translate(27,19)"/>
<path d="M0 0 C2.97764252 4.46646378 2.61441495 8.76248719 2 14 C0.02800035 17.9439993 -2.12563823 20.83491548 -6 23 C-11.40540541 24.2972973 -11.40540541 24.2972973 -14 23 C-14 18.38 -14 13.76 -14 9 C-12.618125 8.62875 -11.23625 8.2575 -9.8125 7.875 C-4.90082809 6.27134687 -2.89656799 4.20469546 0 0 Z " fill="#EDF4FC" transform="translate(56,28)"/>
<path d="M0 0 C13.86 0 27.72 0 42 0 C41 4 41 4 40 5 C37.21176262 5.1134515 34.44922655 5.16418263 31.66015625 5.16796875 C30.82286484 5.17129715 29.98557343 5.17462555 29.12290955 5.17805481 C27.34830272 5.18312756 25.57368633 5.18546303 23.79907227 5.18530273 C21.07747744 5.18748797 18.35628857 5.20563633 15.63476562 5.22460938 C13.91406389 5.22754342 12.19336023 5.22952814 10.47265625 5.23046875 C9.65491226 5.23765427 8.83716827 5.24483978 7.99464417 5.25224304 C2.22882204 5.22882204 2.22882204 5.22882204 0 3 C0 2.01 0 1.02 0 0 Z " fill="#88B9E6" transform="translate(1,52)"/>
<path d="M0 0 C0.33 0.99 0.66 1.98 1 3 C2.65 3 4.3 3 6 3 C6 9.93 6 16.86 6 24 C8.31 24 10.62 24 13 24 C14 27 14 27 13.0625 29.1875 C12.5365625 30.0846875 12.5365625 30.0846875 12 31 C6.03686834 31.02464574 0.07376605 31.042834 -5.8894043 31.05493164 C-7.91968298 31.05997278 -9.94995802 31.06680557 -11.98022461 31.07543945 C-14.89177347 31.08751467 -17.8032745 31.09323034 -20.71484375 31.09765625 C-22.08514992 31.10539818 -22.08514992 31.10539818 -23.48313904 31.11329651 C-25.65575427 31.11349168 -27.82827296 31.06211805 -30 31 C-31 30 -31 30 -31.0625 26.9375 C-31.041875 25.968125 -31.02125 24.99875 -31 24 C-30.34 24 -29.68 24 -29 24 C-29 22.02 -29 20.04 -29 18 C-28.67 18 -28.34 18 -28 18 C-28 19.98 -28 21.96 -28 24 C-26.68 24 -25.36 24 -24 24 C-24 17.07 -24 10.14 -24 3 C-23.67 3 -23.34 3 -23 3 C-23 9.93 -23 16.86 -23 24 C-13.76 24 -4.52 24 5 24 C5 17.4 5 10.8 5 4 C3.35 4 1.7 4 0 4 C-0.0928125 4.804375 -0.0928125 4.804375 -0.1875 5.625 C-1.38995473 9.13986768 -3.4542686 11.33586248 -6 14 C-7.9375 14.83984375 -7.9375 14.83984375 -10 15 C-13.78645171 12.91470775 -16.59644597 10.23756569 -17.9375 6.125 C-17.958125 5.42375 -17.97875 4.7225 -18 4 C-17.401875 4.763125 -16.80375 5.52625 -16.1875 6.3125 C-15.465625 7.199375 -14.74375 8.08625 -14 9 C-13.525625 9.61875 -13.05125 10.2375 -12.5625 10.875 C-10.99120838 12.23737379 -10.99120838 12.23737379 -8.5625 12 C-5.14248892 10.66536153 -3.97837888 9.06989826 -2 6 C-0.74443113 2.82078213 -0.74443113 2.82078213 0 0 Z M-30 25 C-29.42874646 28.74275212 -29.42874646 28.74275212 -28 30 C-25.21176262 30.1134515 -22.44922655 30.16418263 -19.66015625 30.16796875 C-18.82286484 30.17129715 -17.98557343 30.17462555 -17.12290955 30.17805481 C-15.34830272 30.18312756 -13.57368633 30.18546303 -11.79907227 30.18530273 C-9.07747744 30.18748797 -6.35628857 30.20563633 -3.63476562 30.22460938 C-1.91406389 30.22754342 -0.19336023 30.22952814 1.52734375 30.23046875 C2.34508774 30.23765427 3.16283173 30.24483978 4.00535583 30.25224304 C8.4748282 30.42466209 8.4748282 30.42466209 12 28 C12 27.01 12 26.02 12 25 C-1.86 25 -15.72 25 -30 25 Z " fill="#686B89" transform="translate(31,27)"/>
<path d="M0 0 C3.96 0 7.92 0 12 0 C12 2.97 12 5.94 12 9 C8.04 9 4.08 9 0 9 C0 6.03 0 3.06 0 0 Z " fill="#CEC0EC" transform="translate(35,16)"/>
<path d="M0 0 C4.29 0.33 8.58 0.66 13 1 C10.49070754 5.1821541 8.68043256 7.93297287 5 11 C3.35 11 1.7 11 0 11 C0 7.37 0 3.74 0 0 Z " fill="#A6A2BF" transform="translate(42,26)"/>
<path d="M0 0 C0.33 0 0.66 0 1 0 C1 7.26 1 14.52 1 22 C-1.31 22 -3.62 22 -6 22 C-5.34 23.32 -4.68 24.64 -4 26 C9.53 26 23.06 26 37 26 C36.67 26.66 36.34 27.32 36 28 C30.03686834 28.02464574 24.07376605 28.042834 18.1105957 28.05493164 C16.08031702 28.05997278 14.05004198 28.06680557 12.01977539 28.07543945 C9.10822653 28.08751467 6.1967255 28.09323034 3.28515625 28.09765625 C1.91485008 28.10539818 1.91485008 28.10539818 0.51686096 28.11329651 C-1.65575427 28.11349168 -3.82827296 28.06211805 -6 28 C-7 27 -7 27 -7.0625 23.9375 C-7.041875 22.968125 -7.02125 21.99875 -7 21 C-6.34 21 -5.68 21 -5 21 C-5 19.02 -5 17.04 -5 15 C-4.67 15 -4.34 15 -4 15 C-4 16.98 -4 18.96 -4 21 C-2.68 21 -1.36 21 0 21 C0 14.07 0 7.14 0 0 Z " fill="#5C5D81" transform="translate(7,30)"/>
<path d="M0 0 C2.64 0 5.28 0 8 0 C8 0.99 8 1.98 8 3 C6.35 3 4.7 3 3 3 C3 9.93 3 16.86 3 24 C2.01 24 1.02 24 0 24 C0 16.08 0 8.16 0 0 Z " fill="#9BC9F1" transform="translate(4,27)"/>
<path d="M0 0 C2.31 0 4.62 0 7 0 C7 7.92 7 15.84 7 24 C6.01 24 5.02 24 4 24 C4 16.74 4 9.48 4 2 C2.68 2 1.36 2 0 2 C0 1.34 0 0.68 0 0 Z " fill="#8CC2F0" transform="translate(33,27)"/>
<path d="M0 0 C2.31 0 4.62 0 7 0 C9.42857143 7.42857143 9.42857143 7.42857143 8 11 C7.67 10.34 7.34 9.68 7 9 C4.69 9 2.38 9 0 9 C0 6.03 0 3.06 0 0 Z " fill="#CCBFE9" transform="translate(49,16)"/>
<path d="M0 0 C2.375 0.25 2.375 0.25 5 1 C7.09862498 3.89810116 7 5.28378861 7 9 C3.7 9 0.4 9 -3 9 C-2.5020163 5.26512223 -2.12508244 3.18762365 0 0 Z " fill="#CDC0EB" transform="translate(39,5)"/>
<path d="M0 0 C0.89203125 0.01804688 1.7840625 0.03609375 2.703125 0.0546875 C3.71632813 0.08949219 3.71632813 0.08949219 4.75 0.125 C4.75 0.785 4.75 1.445 4.75 2.125 C4.16992188 2.15078125 3.58984375 2.1765625 2.9921875 2.203125 C-2.45101925 2.59834133 -6.01924408 3.3979055 -10.25 7.125 C-12.13568694 10.22514929 -12.13568694 10.22514929 -13.25 13.125 C-13.91 13.125 -14.57 13.125 -15.25 13.125 C-14.97690064 9.21057587 -14.50007787 7.4223899 -11.9375 4.375 C-7.87573843 0.97445543 -5.3191014 -0.13997635 0 0 Z " fill="#59597A" transform="translate(15.25,-0.125)"/>
<path d="M0 0 C5.94 0 11.88 0 18 0 C18 0.99 18 1.98 18 3 C12.06 3 6.12 3 0 3 C0 2.01 0 1.02 0 0 Z " fill="#92CAF8" transform="translate(2,53)"/>
<path d="M0 0 C4.62 0 9.24 0 14 0 C14.66 1.65 15.32 3.3 16 5 C15.01 4.67 14.02 4.34 13 4 C12.67 3.34 12.34 2.68 12 2 C10.37581255 1.91909029 8.75048255 1.86085005 7.125 1.8125 C6.22007813 1.77769531 5.31515625 1.74289063 4.3828125 1.70703125 C3.59648437 1.80371094 2.81015625 1.90039062 2 2 C1.01 3.485 1.01 3.485 0 5 C-0.66 5 -1.32 5 -2 5 C-2 7.64 -2 10.28 -2 13 C-3.65 13 -5.3 13 -7 13 C-5.68 12.67 -4.36 12.34 -3 12 C-3.33 11.01 -3.66 10.02 -4 9 C-6.97 8.505 -6.97 8.505 -10 8 C-10 7.67 -10 7.34 -10 7 C-8.02 7 -6.04 7 -4 7 C-3.67 6.01 -3.34 5.02 -3 4 C-2.34 3.67 -1.68 3.34 -1 3 C-0.67 2.01 -0.34 1.02 0 0 Z " fill="#737892" transform="translate(15,18)"/>
<path d="M0 0 C1.32 0 2.64 0 4 0 C4 0.66 4 1.32 4 2 C9.61 2 15.22 2 21 2 C21 2.33 21 2.66 21 3 C8.46 3 -4.08 3 -17 3 C-17 2.67 -17 2.34 -17 2 C-11.39 2 -5.78 2 0 2 C0 1.34 0 0.68 0 0 Z " fill="#7FA6D2" transform="translate(20,54)"/>
<path d="M0 0 C4.42761914 1.39153744 6.9556255 3.52071486 10 7 C10 7.66 10 8.32 10 9 C7.69 9 5.38 9 3 9 C2.01 6.03 1.02 3.06 0 0 Z " fill="#CCBEE9" transform="translate(45,5)"/>
<path d="M0 0 C2.31 0 4.62 0 7 0 C5.11788404 3.48191452 3.4990401 6.03178994 0 8 C-0.99 7.67 -1.98 7.34 -3 7 C-2.01 4.69 -1.02 2.38 0 0 Z " fill="#CCBEEA" transform="translate(48,27)"/>
<path d="M0 0 C0.33 0.66 0.66 1.32 1 2 C0.06421005 4.35981813 -0.93347808 6.69631264 -2 9 C-4.31 9 -6.62 9 -9 9 C-6.78310162 4.56620325 -4.22271781 2.53363068 0 0 Z " fill="#D0C3EC" transform="translate(36,5)"/>
<path d="M0 0 C0 0.66 0 1.32 0 2 C-1.051875 2.04125 -2.10375 2.0825 -3.1875 2.125 C-8.18472055 3.27190308 -9.12285398 4.90224658 -12 9 C-12.33 8.34 -12.66 7.68 -13 7 C-8.8806955 0.54642295 -7.63863052 -0.14145612 0 0 Z " fill="#727392" transform="translate(18,5)"/>
<path d="M0 0 C1.32 0 2.64 0 4 0 C3.50351065 4.46840411 3.31012244 5.68987756 0 9 C0 6.03 0 3.06 0 0 Z " fill="#CCBEE9" transform="translate(42,27)"/>
<path d="M0 0 C2.31 0 4.62 0 7 0 C7 1.98 7 3.96 7 6 C5.0625 5.6875 5.0625 5.6875 3 5 C2.67 4.01 2.34 3.02 2 2 C1.34 1.34 0.68 0.68 0 0 Z " fill="#CEC0EB" transform="translate(26,16)"/>
<path d="M0 0 C0.99 0.33 1.98 0.66 3 1 C3 1.66 3 2.32 3 3 C-1.29 2.67 -5.58 2.34 -10 2 C-6.31884463 -0.45410358 -4.34706402 -0.23287843 0 0 Z " fill="#9997B0" transform="translate(46,3)"/>
<path d="M0 0 C2.31 0 4.62 0 7 0 C7 0.99 7 1.98 7 3 C4.69 3 2.38 3 0 3 C0 2.01 0 1.02 0 0 Z " fill="#89BCE9" transform="translate(5,27)"/>
</svg>
