<?xml version="1.0" encoding="UTF-8"?>
<svg version="1.1" xmlns="http://www.w3.org/2000/svg" width="512" height="512">
<path d="M0 0 C1.14866043 -0.00101212 1.14866043 -0.00101212 2.32052612 -0.00204468 C13.38686086 0.01347979 23.87429901 0.39003788 34.625 3.25 C35.64787109 3.50740967 35.64787109 3.50740967 36.69140625 3.77001953 C69.65632832 12.13838337 100.7740201 32.56204614 119.625 61.25 C120.04989936 62.14172913 120.47479872 63.03345825 120.91257381 63.95220947 C123.95437324 69.9339371 123.95437324 69.9339371 129.51257515 73.25840759 C133.16882399 73.62591165 136.68592954 73.64214052 140.35961914 73.54296875 C141.749928 73.54481925 143.1402376 73.55155728 144.53050232 73.56278992 C148.29206733 73.57981721 152.05011058 73.5298664 155.81109929 73.46846771 C159.75340779 73.4164961 163.69547823 73.42938717 167.63804626 73.43603516 C175.10403354 73.43936825 182.56860089 73.38939434 190.03421062 73.31796646 C203.40329592 73.19222638 216.77288128 73.1660779 230.14248174 73.14607525 C234.83186797 73.137065 239.52056614 73.10769629 244.20972264 73.0607996 C247.12825532 73.03373316 250.04677665 73.01842044 252.9654026 73.0055027 C254.95860746 72.99258395 256.95169402 72.96427064 258.94473267 72.93547058 C260.13767441 72.93211197 261.33061615 72.92875336 262.55970764 72.92529297 C263.59224198 72.91561493 264.62477633 72.90593689 265.68859959 72.89596558 C270.49892728 73.47593471 273.71211487 75.23842458 276.9375 78.8125 C280.17625282 83.49069852 279.90810288 87.48234614 280.1484375 93.0859375 C280.65750063 96.46578284 281.44491353 97.71215575 283.625 100.25 C284.54380016 103.00640048 284.75583902 104.66341804 284.77026367 107.50610352 C284.77983345 108.78741905 284.77983345 108.78741905 284.78959656 110.09461975 C284.79126579 111.47284157 284.79126579 111.47284157 284.79296875 112.87890625 C284.79629715 113.82434799 284.79962555 114.76978973 284.80305481 115.74388123 C284.80811671 117.74192824 284.81046336 119.73998369 284.81030273 121.73803711 C284.81249394 124.80401387 284.83067032 127.86963357 284.84960938 130.93554688 C284.85254243 132.87499877 284.85452781 134.81445237 284.85546875 136.75390625 C284.86265427 137.67474503 284.86983978 138.5955838 284.87724304 139.54432678 C284.87416641 140.39538498 284.87108978 141.24644318 284.86791992 142.12329102 C284.86934494 142.87369156 284.87076996 143.6240921 284.87223816 144.39723206 C284.625 146.25 284.625 146.25 282.625 148.25 C281.635 148.25 280.645 148.25 279.625 148.25 C279.625 153.86 279.625 159.47 279.625 165.25 C280.945 165.58 282.265 165.91 283.625 166.25 C284.625 167.25 284.625 167.25 284.72938538 170.07623291 C284.72080002 171.34303894 284.71221466 172.60984497 284.70336914 173.91503906 C284.69724646 175.36321944 284.69132041 176.81140065 284.68556213 178.25958252 C284.6785538 179.41984829 284.6785538 179.41984829 284.67140388 180.60355377 C284.65217783 184.72660865 284.66746856 188.84958773 284.67773438 192.97265625 C284.68988203 198.20783186 284.69230057 203.44220165 284.64916992 208.67724609 C284.30879482 235.69744058 284.30879482 235.69744058 292.66255188 261.12982178 C310.47701035 300.37331565 304.20357359 352.28458651 289.77539062 391.29248047 C271.40108576 438.53066576 234.95441866 475.95518131 188.95507812 496.84008789 C177.79802249 501.73727667 166.47943389 505.457048 154.625 508.25 C153.32344971 508.56541748 153.32344971 508.56541748 151.99560547 508.88720703 C125.63293957 515.00892923 94.84911957 514.99994968 68.625 508.25 C67.35052002 507.92854004 67.35052002 507.92854004 66.05029297 507.60058594 C22.29020779 496.24527772 -16.82593906 469.91202384 -43.375 433.25 C-43.79201172 432.67733398 -44.20902344 432.10466797 -44.63867188 431.51464844 C-68.375 398.50226697 -68.375 398.50226697 -68.375 384.25 C-69.60541016 384.27094727 -70.83582031 384.29189453 -72.10351562 384.31347656 C-76.6955183 384.38621599 -81.28747065 384.43192271 -85.87988281 384.46972656 C-87.86239199 384.48976497 -89.84484263 384.51700353 -91.82714844 384.55175781 C-94.68699641 384.60061954 -97.54605881 384.62304673 -100.40625 384.640625 C-101.28365845 384.66127014 -102.16106689 384.68191528 -103.06506348 384.70318604 C-109.94844875 384.705661 -115.22191342 383.03213522 -120.43359375 378.43359375 C-120.88863281 377.85738281 -121.34367187 377.28117187 -121.8125 376.6875 C-122.52212891 375.81931641 -122.52212891 375.81931641 -123.24609375 374.93359375 C-125.62965382 371.37887267 -125.49371983 368.15807999 -125.47938538 364.0120697 C-125.47761292 362.70452225 -125.47584045 361.39697479 -125.47401428 360.04980469 C-125.46715919 358.5969237 -125.46027654 357.14404285 -125.45336914 355.69116211 C-125.44985302 354.16329561 -125.44688593 352.63542777 -125.44442749 351.1075592 C-125.43874861 347.81237413 -125.4307325 344.5172054 -125.42140388 341.22202873 C-125.40821066 335.99545578 -125.40996351 330.76895646 -125.41563416 325.54237366 C-125.41655424 324.65911358 -125.41747432 323.77585351 -125.41842228 322.86582798 C-125.4213943 320.14427578 -125.42455937 317.42272384 -125.42773438 314.70117188 C-125.44049481 303.44997775 -125.44272882 292.19913032 -125.39916992 280.94799805 C-125.36750411 272.74142332 -125.36453039 264.53537913 -125.39392942 256.32878882 C-125.40838054 251.99294281 -125.40896508 247.65815702 -125.37452888 243.32240105 C-124.70608702 219.67041768 -124.70608702 219.67041768 -132.38426208 197.70167542 C-147.38300385 171.69584722 -145.82376978 133.70272507 -138.60791016 105.6953125 C-131.9825463 81.80086507 -119.35231826 61.2106723 -102.375 43.25 C-101.62863281 42.43917969 -100.88226563 41.62835938 -100.11328125 40.79296875 C-74.12865447 13.51984808 -37.12733716 0.02922905 0 0 Z " fill="#2929BC" transform="translate(176.375,-0.24999999999999997)"/>
<path d="M0 0 C130.35 0 260.7 0 395 0 C395 5.94 395 11.88 395 18 C393.02 19.485 393.02 19.485 391 21 C390.35750537 23.69732889 390.35750537 23.69732889 390.390625 26.76171875 C390.35839844 27.87998047 390.32617188 28.99824219 390.29296875 30.15039062 C390.27878906 31.31763672 390.26460938 32.48488281 390.25 33.6875 C390.22035156 34.86634766 390.19070313 36.04519531 390.16015625 37.25976562 C390.08938344 40.17324632 390.03672275 43.08592336 390 46 C388.41532272 45.71572583 386.8322943 45.42225182 385.25 45.125 C384.36828125 44.96257812 383.4865625 44.80015625 382.578125 44.6328125 C380.00342233 44.00084003 378.15835898 43.54387745 376 42 C374.95092773 39.52563477 374.95092773 39.52563477 374.18359375 36.44140625 C373.89419922 35.33345703 373.60480469 34.22550781 373.30664062 33.08398438 C373.01982422 31.92189453 372.73300781 30.75980469 372.4375 29.5625 C371.86209221 27.26979977 371.27783399 24.97929764 370.68359375 22.69140625 C370.43150146 21.67248291 370.17940918 20.65355957 369.91967773 19.60375977 C368.94549517 16.84568781 368.43778925 15.6021769 366 14 C363.14579402 13.55269612 363.14579402 13.55269612 359.90625 13.63671875 C358.71128906 13.63736328 357.51632812 13.63800781 356.28515625 13.63867188 C354.41150391 13.6628418 354.41150391 13.6628418 352.5 13.6875 C351.25089844 13.68427734 350.00179688 13.68105469 348.71484375 13.67773438 C341.97769387 13.44715107 341.97769387 13.44715107 336 16 C334.97117001 18.44419488 334.97117001 18.44419488 334.24609375 21.33984375 C333.80040039 22.9340918 333.80040039 22.9340918 333.34570312 24.56054688 C333.04599609 25.67494141 332.74628906 26.78933594 332.4375 27.9375 C331.83668343 30.1353916 331.23140889 32.33207077 330.62109375 34.52734375 C330.3573999 35.50437256 330.09370605 36.48140137 329.82202148 37.48803711 C329 40 329 40 327 43 C324.31350574 44.06759707 321.68568347 45.00146712 318.9375 45.875 C313.13976228 47.78555612 307.98507757 49.75581882 302.95703125 53.3125 C299.81358313 54.41678517 298.0082758 53.30214336 295 52 C291.60137316 50.17916423 288.30366342 48.19211791 285.00976562 46.18945312 C280.69572153 43.66224225 277.12948374 42.07434034 272 42 C269.8325776 42.99359294 269.8325776 42.99359294 268.1875 44.8125 C267.20136719 45.77929688 267.20136719 45.77929688 266.1953125 46.765625 C265.47085937 47.50296875 264.74640625 48.2403125 264 49 C262.66582031 50.22976562 262.66582031 50.22976562 261.3046875 51.484375 C255.0388286 57.11960237 255.0388286 57.11960237 253 65 C253.94421683 67.69201266 253.94421683 67.69201266 255.5625 70.22265625 C256.11164063 71.17333984 256.66078125 72.12402344 257.2265625 73.10351562 C257.81179688 74.07998047 258.39703125 75.05644531 259 76.0625 C260.15898508 78.00392766 261.30541319 79.95292166 262.4375 81.91015625 C262.95183594 82.76746338 263.46617187 83.62477051 263.99609375 84.50805664 C265.21360962 87.53023186 264.96858143 88.92833839 264 92 C262.63865999 95.05428849 261.19668903 98.04291074 259.703125 101.03320312 C259.40148437 101.65517578 259.09984375 102.27714844 258.7890625 102.91796875 C258.47549805 103.56040527 258.16193359 104.2028418 257.83886719 104.86474609 C256.90716834 107.02941422 256.90716834 107.02941422 256.54394531 109.57666016 C256.01927371 112.43093649 255.49583681 114.50371527 254 117 C250.04150902 119.22077535 245.91755452 120.07700258 241.5 121 C239.21788668 121.53801778 236.93659288 122.07952708 234.65625 122.625 C233.64369141 122.84414063 232.63113281 123.06328125 231.58789062 123.2890625 C228.7927144 123.91107232 228.7927144 123.91107232 226 126 C225.58145952 129.20425325 225.58145952 129.20425325 225.70703125 132.9765625 C225.71127609 133.66181 225.71552094 134.3470575 225.71989441 135.05307007 C225.73670247 137.24411129 225.77435595 139.43423632 225.8125 141.625 C225.82754421 143.10936173 225.84123307 144.59373785 225.85351562 146.078125 C225.8866121 149.71904833 225.93840793 153.35943478 226 157 C231.2051811 158.45939657 236.39128241 159.90742364 241.6875 161 C243.12509049 161.33294286 244.56259224 161.66626913 246 162 C246.73605469 162.13277344 247.47210938 162.26554688 248.23046875 162.40234375 C250.61012136 162.99617327 252.03604123 163.51622741 254 165 C255.01025391 167.60766602 255.01025391 167.60766602 255.7265625 170.62890625 C256.09515381 172.13239624 256.09515381 172.13239624 256.47119141 173.66625977 C256.64569824 174.43639404 256.82020508 175.20652832 257 176 C255.80617769 176.00331015 254.61235538 176.00662029 253.38235664 176.01003075 C225.06681301 176.08898573 196.75131436 176.17818168 168.43584395 176.28005161 C164.95348608 176.29257103 161.4711279 176.30500372 157.98876953 176.31738281 C156.94882252 176.3210818 156.94882252 176.3210818 155.88786648 176.32485552 C144.65040781 176.36461906 133.41293904 176.39735045 122.17545094 176.42749982 C110.65154327 176.45857353 99.12768289 176.49731441 87.60382259 176.54279006 C81.12818837 176.56809949 74.65258477 176.58986753 68.17691422 176.60334396 C62.08833878 176.61612412 55.99986817 176.63813435 49.91135025 176.66738319 C47.67074716 176.67649076 45.43012718 176.68215655 43.18950653 176.68421364 C40.14225908 176.68751382 37.0953129 176.70292984 34.04812622 176.7215271 C33.1512519 176.71959237 32.25437758 176.71765763 31.33032525 176.71566427 C26.6841948 176.53846349 26.6841948 176.53846349 23 179 C23.33 180.98 23.66 182.96 24 185 C205.17 185.495 205.17 185.495 390 186 C390 219 390 219 387 224 C383.19533761 226.97927445 380.31444209 227.37650186 375.54500675 227.38311005 C373.57621417 227.39669501 373.57621417 227.39669501 371.56764799 227.41055441 C370.11264832 227.40545017 368.65764964 227.40005808 367.20265198 227.39440918 C365.65580821 227.39929763 364.1089681 227.40548722 362.56213421 227.41286707 C358.30936969 227.4292955 354.05679021 227.42694279 349.80400503 227.4214921 C345.21836332 227.41882549 340.63277134 227.43334669 336.04714966 227.44558716 C327.06278106 227.46665852 318.07847698 227.47118105 309.09408659 227.46939927 C301.7930472 227.46809258 294.49202796 227.47189103 287.19099236 227.47932434 C285.08940202 227.48142349 282.98781169 227.48352109 280.88622135 227.48561716 C279.31728666 227.48718245 279.31728666 227.48718245 277.71665632 227.48877937 C257.92776663 227.50768839 238.13891401 227.50662942 218.35001903 227.49981004 C200.23835828 227.49423324 182.12683893 227.51506468 164.01521123 227.54817051 C145.42630777 227.58188554 126.8374721 227.59707863 108.24853748 227.59245348 C97.80898109 227.59020668 87.36955541 227.59548273 76.9300251 227.62034607 C68.04320887 227.64133087 59.15659503 227.6449792 50.26977057 227.62604648 C45.73428514 227.61687145 41.19917737 227.61579946 36.66372108 227.63640213 C32.51286961 227.65504946 28.36270673 227.6506795 24.21188199 227.62785631 C22.70924188 227.62365469 21.20654961 227.6279229 19.70396454 227.64145225 C7.07257887 227.74745238 7.07257887 227.74745238 3.12972927 224.64865875 C-0.51913786 220.11070927 -0.13947603 215.88926223 -0.12025452 210.32514954 C-0.12111053 209.43045456 -0.12196655 208.53575958 -0.12284851 207.61395264 C-0.12450893 204.59458449 -0.11897158 201.57527132 -0.11352539 198.5559082 C-0.11321919 196.36284735 -0.11335232 194.16978639 -0.11389065 191.97672558 C-0.1141169 186.0907147 -0.10831069 180.20472405 -0.10128021 174.31871796 C-0.09559567 168.80049067 -0.09531766 163.28226836 -0.09460449 157.76403809 C-0.08935202 141.6135227 -0.07539093 125.4630111 -0.0625 109.3125 C-0.041875 73.239375 -0.02125 37.16625 0 0 Z " fill="#FEFEFE" transform="translate(61,147)"/>
<path d="M0 0 C9.72510455 9.72510455 12.36929901 31.8521769 15 45 C15.35191406 46.75570312 15.35191406 46.75570312 15.7109375 48.546875 C23.85348227 96.93011204 12.13913852 148.8652075 -16 189 C-43.83922703 227.71666899 -83.44908923 255.03241939 -130 266 C-130.8677002 266.21027832 -131.73540039 266.42055664 -132.62939453 266.63720703 C-158.99206043 272.75892923 -189.77588043 272.74994968 -216 266 C-217.27447998 265.67854004 -217.27447998 265.67854004 -218.57470703 265.35058594 C-262.33479221 253.99527772 -301.45093906 227.66202384 -328 191 C-328.62551758 190.14100098 -328.62551758 190.14100098 -329.26367188 189.26464844 C-353 156.25226697 -353 156.25226697 -353 142 C-319.01 142 -285.02 142 -250 142 C-251.14997723 148.32487475 -252.25289896 154.39033648 -253.8046875 160.58203125 C-253.96993927 161.24353683 -254.13519104 161.90504242 -254.30545044 162.58659363 C-254.65164102 163.96904449 -254.99953515 165.35106985 -255.34912109 166.73266602 C-255.87130914 168.79790276 -256.38724713 170.86462516 -256.90234375 172.93164062 C-258.8428512 180.67511144 -260.91778897 188.35940557 -263.17236328 196.01831055 C-263.90828021 198.66956525 -264.50274739 201.29520916 -265 204 C-266.27617187 204.04898438 -267.55234375 204.09796875 -268.8671875 204.1484375 C-270.53648072 204.22346191 -272.20575046 204.29900988 -273.875 204.375 C-275.13763672 204.42140625 -275.13763672 204.42140625 -276.42578125 204.46875 C-277.23144531 204.50742187 -278.03710938 204.54609375 -278.8671875 204.5859375 C-279.61081543 204.6173584 -280.35444336 204.6487793 -281.12060547 204.68115234 C-283.24010974 204.85419551 -283.24010974 204.85419551 -285 207 C-284.67 208.98 -284.34 210.96 -284 213 C-231.86 213 -179.72 213 -126 213 C-125.67 211.02 -125.34 209.04 -125 207 C-127.35358251 204.64641749 -127.92968394 204.72128096 -131.1328125 204.5859375 C-132.34130859 204.52792969 -132.34130859 204.52792969 -133.57421875 204.46875 C-134.83685547 204.42234375 -134.83685547 204.42234375 -136.125 204.375 C-137.39923828 204.31699219 -137.39923828 204.31699219 -138.69921875 204.2578125 C-140.79911684 204.16343506 -142.89952891 204.08062414 -145 204 C-148.01051156 192.33602735 -151.01185686 180.66972444 -154 169 C-154.17263367 168.32598145 -154.34526733 167.65196289 -154.52313232 166.95751953 C-155.54283501 162.97332952 -156.55500546 158.98729305 -157.5625 155 C-157.81338379 154.01773438 -158.06426758 153.03546875 -158.32275391 152.0234375 C-158.54753418 151.12882813 -158.77231445 150.23421875 -159.00390625 149.3125 C-159.29503296 148.16201172 -159.29503296 148.16201172 -159.59204102 146.98828125 C-160 145 -160 145 -160 142 C-159.27131242 141.99853344 -158.54262484 141.99706688 -157.79185581 141.99555588 C-140.03833853 141.95845903 -122.28501754 141.8994062 -104.53165531 141.81609726 C-95.9461493 141.77633528 -87.36073457 141.74392839 -78.77514648 141.72900391 C-71.28949588 141.71597262 -63.80404638 141.68897041 -56.31850904 141.64538693 C-52.35714264 141.62280515 -48.39602395 141.60708733 -44.43458748 141.60811615 C-40.70062067 141.60886472 -36.96720076 141.59083583 -33.23337555 141.55883217 C-31.22053827 141.54634425 -29.20760899 141.55338182 -27.19474792 141.56114197 C-19.4910976 141.47297169 -12.39658068 140.93494634 -6.42269993 135.58831406 C-2.36409478 131.03554453 -0.75751135 126.63064651 -0.7215271 120.61528015 C-0.71036362 119.54822342 -0.69920013 118.48116669 -0.68769836 117.3817749 C-0.68445808 115.64144989 -0.68445808 115.64144989 -0.68115234 113.8659668 C-0.67110672 112.63628677 -0.6610611 111.40660675 -0.65071106 110.1396637 C-0.62514856 106.77639392 -0.60827559 103.41329226 -0.59528303 100.04996467 C-0.57963215 96.53186242 -0.55284819 93.01384524 -0.5272522 89.49580383 C-0.48049901 82.83780054 -0.4437382 76.17978118 -0.41057932 69.52169782 C-0.37233345 61.94005321 -0.32292976 54.35849411 -0.27259517 46.77692163 C-0.1693268 31.18467626 -0.08004989 15.59238291 0 0 Z " fill="#DADCFB" transform="translate(461,242)"/>
<path d="M0 0 C1.24072266 -0.02449219 2.48144531 -0.04898438 3.75976562 -0.07421875 C4.95150391 -0.07808594 6.14324219 -0.08195313 7.37109375 -0.0859375 C8.46220459 -0.09415527 9.55331543 -0.10237305 10.67749023 -0.11083984 C14.30502149 0.5000417 15.40420075 1.42658147 17.5625 4.375 C18.45288086 7.06054687 18.45288086 7.06054687 19.02734375 10.09375 C19.27162109 11.19074219 19.51589844 12.28773438 19.76757812 13.41796875 C20.25440132 15.71577421 20.70781945 18.02092033 21.12695312 20.33203125 C21.90118419 24.16413431 21.90118419 24.16413431 24.5625 29.375 C28.8525 30.695 33.1425 32.015 37.5625 33.375 C37.5625 76.275 37.5625 119.175 37.5625 163.375 C-6.3275 163.375 -50.2175 163.375 -95.4375 163.375 C-98.4375 154.375 -98.4375 154.375 -98.4375 152.375 C-98.97375 152.28863281 -99.51 152.20226562 -100.0625 152.11328125 C-105.78420899 151.08751434 -111.31873579 149.6238639 -116.875 147.9375 C-117.92204102 147.62969604 -117.92204102 147.62969604 -118.99023438 147.31567383 C-125.29798655 145.35256254 -125.29798655 145.35256254 -127.4375 142.375 C-128.00339468 138.2362754 -127.91020652 134.09764064 -127.88354492 129.92333984 C-127.87502697 127.88146429 -127.90380834 125.84238085 -127.93554688 123.80078125 C-127.93490234 122.51558594 -127.93425781 121.23039062 -127.93359375 119.90625 C-127.93544678 118.72611328 -127.9372998 117.54597656 -127.93920898 116.33007812 C-127.4375 113.375 -127.4375 113.375 -125.70922852 111.56713867 C-123.34865976 110.32837917 -121.15871552 109.49483327 -118.59375 108.76953125 C-117.67722656 108.50849609 -116.76070313 108.24746094 -115.81640625 107.97851562 C-114.86636719 107.71748047 -113.91632813 107.45644531 -112.9375 107.1875 C-111.98746094 106.91486328 -111.03742188 106.64222656 -110.05859375 106.36132812 C-105.97803682 105.21636173 -102.71286707 104.375 -98.4375 104.375 C-98.2725 103.075625 -98.1075 101.77625 -97.9375 100.4375 C-96.75560694 94.23478305 -94.00000389 88.90546563 -91.09375 83.35375977 C-90.73925781 82.65307373 -90.38476562 81.9523877 -90.01953125 81.23046875 C-89.69186768 80.60809326 -89.3642041 79.98571777 -89.02661133 79.34448242 C-87.98926037 75.87647156 -89.01639816 73.2283043 -90.57666016 70.06665039 C-91.03862793 69.29313232 -91.5005957 68.51961426 -91.9765625 67.72265625 C-92.47414063 66.86349609 -92.97171875 66.00433594 -93.484375 65.11914062 C-94.53676981 63.33085093 -95.59668889 61.54696803 -96.6640625 59.76757812 C-98.70000889 56.2285307 -100.32503385 53.38208329 -100.78125 49.296875 C-98.58541107 44.52220198 -95.03199431 41.21046558 -91.3125 37.5625 C-90.56484375 36.78712891 -89.8171875 36.01175781 -89.046875 35.21289062 C-85.74314019 31.92354491 -83.29666229 29.67261831 -78.8515625 28.1328125 C-74.46542766 28.44395708 -71.66887902 29.8429065 -67.9375 32.0625 C-67.31230469 32.41505859 -66.68710937 32.76761719 -66.04296875 33.13085938 C-63.51287245 34.56353295 -61.00689518 35.99585369 -58.5859375 37.60791016 C-56.5838851 38.94930036 -56.5838851 38.94930036 -53.4375 40.375 C-50.87381225 39.9473534 -50.87381225 39.9473534 -48.4375 38.375 C-47.19540355 37.81109506 -45.9474181 37.26006685 -44.6953125 36.71875 C-42.62691359 35.79726444 -40.55964249 34.87370899 -38.49609375 33.94140625 C-37.81933594 33.64105469 -37.14257812 33.34070313 -36.4453125 33.03125 C-35.77757812 32.73331543 -35.10984375 32.43538086 -34.421875 32.12841797 C-32.4375 31.375 -32.4375 31.375 -28.6328125 30.7265625 C-25.40933672 29.73767499 -25.40933672 29.73767499 -24.37744141 27.57128906 C-23.4911863 25.15271398 -22.81396552 22.74831431 -22.1875 20.25 C-21.7259641 18.58017348 -21.26243926 16.91089536 -20.796875 15.2421875 C-20.57451172 14.4284668 -20.35214844 13.61474609 -20.12304688 12.77636719 C-16.58004925 0.36578149 -12.35382441 0.01279526 0 0 Z " fill="#FE5CA8" transform="translate(413.4375,159.625)"/>
<path d="M0 0 C1.14866043 -0.00101212 1.14866043 -0.00101212 2.32052612 -0.00204468 C13.38686086 0.01347979 23.87429901 0.39003788 34.625 3.25 C35.64787109 3.50740967 35.64787109 3.50740967 36.69140625 3.77001953 C73.72728714 13.17182323 104.8642709 36.88821166 124.953125 69.26953125 C133.625 84.72897196 133.625 84.72897196 133.625 89.25 C132.3800174 89.25146656 131.13503479 89.25293312 129.85232544 89.25444412 C100.28922481 89.2901574 70.72623713 89.34641484 41.16323096 89.42792095 C37.52337182 89.43793823 33.88351224 89.44778239 30.24365234 89.45751953 C29.15672098 89.46043159 29.15672098 89.46043159 28.04783142 89.46340248 C16.31972825 89.4944112 4.59164465 89.51139997 -7.13649178 89.52319422 C-19.17347826 89.53561164 -31.2103622 89.56312635 -43.24728394 89.60461307 C-50.00706939 89.6274795 -56.76672242 89.64340215 -63.52655029 89.64188385 C-69.88936536 89.64113903 -76.25185651 89.65901887 -82.61458778 89.69116783 C-84.94942053 89.69968497 -87.28428953 89.70140451 -89.61913109 89.69580269 C-92.80904757 89.68916892 -95.99793159 89.70706985 -99.18774414 89.73101807 C-100.10994184 89.72325765 -101.03213955 89.71549723 -101.98228264 89.70750165 C-108.87713866 89.79902539 -114.2069945 91.45470103 -119.43359375 96.06640625 C-119.88863281 96.64261719 -120.34367187 97.21882813 -120.8125 97.8125 C-121.28558594 98.39128906 -121.75867188 98.97007813 -122.24609375 99.56640625 C-124.25723447 102.56571992 -124.50474652 105.20882155 -124.53321838 108.71086121 C-124.54790161 110.08014015 -124.54790161 110.08014015 -124.56288147 111.4770813 C-124.56863693 112.47617523 -124.5743924 113.47526917 -124.58032227 114.50463867 C-124.59517166 116.08537422 -124.59517166 116.08537422 -124.61032104 117.69804382 C-124.64195706 121.18799579 -124.66670188 124.67796139 -124.69140625 128.16796875 C-124.71197395 130.58507139 -124.73297038 133.00217041 -124.75437927 135.41926575 C-124.80961886 141.78637775 -124.85901986 148.1535223 -124.90722656 154.52069092 C-124.95742778 161.01577661 -125.01312105 167.51081492 -125.06835938 174.00585938 C-125.17596405 186.75386551 -125.27759036 199.50191209 -125.375 212.25 C-127.28236336 209.75495478 -128.85506033 207.50282976 -130.05859375 204.59765625 C-130.48736816 203.56705078 -130.48736816 203.56705078 -130.92480469 202.515625 C-131.21774414 201.78859375 -131.51068359 201.0615625 -131.8125 200.3125 C-132.11961914 199.55324219 -132.42673828 198.79398438 -132.74316406 198.01171875 C-146.72968185 162.9198853 -147.14543734 123.38955214 -132.5625 88.375 C-125.17803968 71.35749989 -115.12810084 56.74178129 -102.375 43.25 C-101.62863281 42.43917969 -100.88226563 41.62835938 -100.11328125 40.79296875 C-74.12865447 13.51984808 -37.12733716 0.02922905 0 0 Z " fill="#F9DBEF" transform="translate(176.375,-0.24999999999999997)"/>
<path d="M0 0 C7.26 0 14.52 0 22 0 C22.66 1.32 23.32 2.64 24 4 C205.17 4.495 205.17 4.495 390 5 C390 38 390 38 387 43 C383.19533761 45.97927445 380.31444209 46.37650186 375.54500675 46.38311005 C374.23247836 46.39216669 372.91994997 46.40122333 371.56764799 46.41055441 C370.11264832 46.40545017 368.65764964 46.40005808 367.20265198 46.39440918 C365.65580821 46.39929763 364.1089681 46.40548722 362.56213421 46.41286707 C358.30936969 46.4292955 354.05679021 46.42694279 349.80400503 46.4214921 C345.21836332 46.41882549 340.63277134 46.43334669 336.04714966 46.44558716 C327.06278106 46.46665852 318.07847698 46.47118105 309.09408659 46.46939927 C301.7930472 46.46809258 294.49202796 46.47189103 287.19099236 46.47932434 C285.08940202 46.48142349 282.98781169 46.48352109 280.88622135 46.48561716 C279.31728666 46.48718245 279.31728666 46.48718245 277.71665632 46.48877937 C257.92776663 46.50768839 238.13891401 46.50662942 218.35001903 46.49981004 C200.23835828 46.49423324 182.12683893 46.51506468 164.01521123 46.54817051 C145.42630777 46.58188554 126.8374721 46.59707863 108.24853748 46.59245348 C97.80898109 46.59020668 87.36955541 46.59548273 76.9300251 46.62034607 C68.04320887 46.64133087 59.15659503 46.6449792 50.26977057 46.62604648 C45.73428514 46.61687145 41.19917737 46.61579946 36.66372108 46.63640213 C32.51286961 46.65504946 28.36270673 46.6506795 24.21188199 46.62785631 C22.70924188 46.62365469 21.20654961 46.6279229 19.70396454 46.64145225 C7.07257887 46.74745238 7.07257887 46.74745238 3.12972927 43.64865875 C-0.50778137 39.12483287 -0.13274849 34.94071373 -0.09765625 29.39453125 C-0.0962413 28.55532639 -0.09482635 27.71612152 -0.09336853 26.85148621 C-0.08777215 24.17178784 -0.07522035 21.4921731 -0.0625 18.8125 C-0.05748453 16.99544392 -0.05292171 15.17838652 -0.04882812 13.36132812 C-0.03865491 8.90749396 -0.0190788 4.45384057 0 0 Z " fill="#B4C2FD" transform="translate(61,328)"/>
<path d="M0 0 C1.30717194 -0.00384115 2.61434389 -0.00768229 3.9611271 -0.01163983 C5.42564163 -0.01085949 6.89015611 -0.00998069 8.35467052 -0.00901413 C9.89963407 -0.0115962 11.44459694 -0.01460892 12.98955888 -0.01801753 C17.25098063 -0.02610934 21.51238556 -0.02787831 25.77381408 -0.028615 C30.36356077 -0.03046177 34.95329865 -0.03800719 39.54304028 -0.04475021 C49.58632449 -0.0583495 59.62960473 -0.06436073 69.67289662 -0.06876087 C75.94015574 -0.07152058 82.2074133 -0.07575743 88.47467136 -0.08026505 C105.81589473 -0.09245976 123.15711686 -0.1027587 140.49834442 -0.10614014 C142.16413367 -0.10646949 142.16413367 -0.10646949 143.86357523 -0.10680549 C144.97680723 -0.10702377 146.09003923 -0.10724204 147.23700553 -0.10746694 C149.49295795 -0.10791041 151.74891037 -0.10835697 154.00486279 -0.10880661 C155.68341976 -0.10913875 155.68341976 -0.10913875 157.39588698 -0.10947761 C175.53424053 -0.11342684 193.67255393 -0.13088378 211.81089196 -0.15416613 C230.41889523 -0.17785919 249.02687833 -0.19034105 267.63489693 -0.19150805 C278.08840888 -0.19242597 288.54186853 -0.19820738 298.9953661 -0.21632767 C307.89577935 -0.23170107 316.79612414 -0.23686548 325.69654814 -0.22858956 C330.23990588 -0.22467325 334.78312565 -0.22566029 339.32646656 -0.23964691 C343.48339607 -0.25232725 347.6400831 -0.25124032 351.79701199 -0.2390562 C353.30309003 -0.23708897 354.8091849 -0.24022466 356.31523923 -0.24890056 C358.35852845 -0.25992867 360.4018971 -0.2507486 362.44519043 -0.24050903 C363.58136867 -0.24110612 364.71754692 -0.24170321 365.8881548 -0.24231839 C369.34619317 0.1851848 371.14385811 1.0385559 373.91135693 3.13142776 C380.93702415 12.49898407 376.91135693 26.42198238 376.91135693 38.13142776 C248.21135693 38.13142776 119.51135693 38.13142776 -13.08864307 38.13142776 C-13.08864307 7.13142776 -13.08864307 7.13142776 -8.08864307 1.13142776 C-5.32357574 -0.2511059 -3.09613041 0.00339821 0 0 Z " fill="#6482FD" transform="translate(74.08864307403564,98.86857223510742)"/>
<path d="M0 0 C0.89460938 -0.00128906 1.78921875 -0.00257813 2.7109375 -0.00390625 C3.65195312 -0.00003906 4.59296875 0.00382813 5.5625 0.0078125 C6.97402344 0.00201172 6.97402344 0.00201172 8.4140625 -0.00390625 C9.75597656 -0.00197266 9.75597656 -0.00197266 11.125 0 C11.95128906 0.00112793 12.77757812 0.00225586 13.62890625 0.00341797 C15.5625 0.1328125 15.5625 0.1328125 16.5625 1.1328125 C16.65025605 3.27840077 16.66945219 5.42685671 16.66015625 7.57421875 C16.65693359 8.87939453 16.65371094 10.18457031 16.65039062 11.52929688 C16.64203401 12.9179694 16.63356905 14.30664127 16.625 15.6953125 C16.61998666 17.08788906 16.61542347 18.48046731 16.61132812 19.87304688 C16.59949434 23.2930112 16.5830088 26.71289094 16.5625 30.1328125 C17.20461426 30.17744629 17.84672852 30.22208008 18.50830078 30.26806641 C31.3481207 31.32630645 42.93784717 36.60643183 51.44221497 46.4659462 C54.7887689 51.44526647 53.99930597 57.70471498 53.734375 63.42578125 C53.71193778 64.8673031 53.69488255 66.30891772 53.68292236 67.75056458 C53.63752451 71.50958771 53.52007946 75.26286956 53.38647461 79.01965332 C53.26276417 82.86712975 53.20871329 86.71555287 53.1484375 90.56445312 C53.02049401 98.08983195 52.81626597 105.61051214 52.5625 113.1328125 C43.57415317 113.3418867 34.58665034 113.50152531 25.5963974 113.59912205 C21.42113515 113.64597929 17.24754312 113.70946331 13.07324219 113.81176758 C9.04008238 113.90998745 5.00852237 113.9634563 0.97425842 113.98670769 C-0.56006552 114.00326288 -2.09430751 114.03559531 -3.62794495 114.08438301 C-15.61344198 114.45029269 -15.61344198 114.45029269 -20.14822388 111.1749115 C-23.56838647 107.3990828 -26.34113132 103.28289091 -28.3125 98.5703125 C-28.89837891 97.19359375 -28.89837891 97.19359375 -29.49609375 95.7890625 C-30.3527786 93.37186044 -30.90573352 91.08521637 -31.375 88.5703125 C-31.725625 87.4359375 -32.07625 86.3015625 -32.4375 85.1328125 C-35.44344022 83.87366881 -35.44344022 83.87366881 -38.4375 83.1328125 C-38.48378625 74.82280458 -38.5193502 66.51285029 -38.54112434 58.20274544 C-38.55157343 54.34426453 -38.565753 50.48587165 -38.58837891 46.62744141 C-38.6100674 42.90569058 -38.62206014 39.18402456 -38.62725449 35.46221542 C-38.63095745 34.04040059 -38.63818819 32.61859053 -38.64896011 31.19681168 C-38.66342119 29.20954136 -38.66431646 27.22218619 -38.66455078 25.23486328 C-38.668992 24.10235138 -38.67343323 22.96983948 -38.67800903 21.80300903 C-38.4375 19.1328125 -38.4375 19.1328125 -36.4375 17.1328125 C-34.58984375 16.87402344 -34.58984375 16.87402344 -32.375 16.8671875 C-31.18003906 16.86332031 -31.18003906 16.86332031 -29.9609375 16.859375 C-29.12820313 16.86710937 -28.29546875 16.87484375 -27.4375 16.8828125 C-26.60476563 16.87507813 -25.77203125 16.86734375 -24.9140625 16.859375 C-24.11742187 16.86195313 -23.32078125 16.86453125 -22.5 16.8671875 C-21.76910156 16.86944336 -21.03820312 16.87169922 -20.28515625 16.87402344 C-18.4375 17.1328125 -18.4375 17.1328125 -16.4375 19.1328125 C-16.11865234 21.37939453 -16.11865234 21.37939453 -16.0234375 24.140625 C-15.98476563 25.12675781 -15.94609375 26.11289063 -15.90625 27.12890625 C-15.8753125 28.16144531 -15.844375 29.19398438 -15.8125 30.2578125 C-15.77382813 31.29808594 -15.73515625 32.33835938 -15.6953125 33.41015625 C-15.60085234 35.98419561 -15.51528786 38.55822405 -15.4375 41.1328125 C-11.67936906 39.7647959 -9.05152811 38.18888263 -6.4375 35.1328125 C-5.14753909 29.36714791 -5.31125004 23.70175722 -5.4375 17.8203125 C-5.44566128 15.44561878 -5.44154562 13.07118301 -5.43579102 10.69648743 C-5.4369155 9.22295707 -5.44882759 7.74938879 -5.47241211 6.27604675 C-5.49601371 4.5617583 -5.47162493 2.84692376 -5.4375 1.1328125 C-3.84812444 -0.45656306 -2.19850154 0.00300107 0 0 Z " fill="#FDC4DE" transform="translate(398.4375,209.8671875)"/>
<path d="M0 0 C23.1 0 46.2 0 70 0 C72.475 9.85875 74.95 19.7175 77.5 29.875 C78.28310547 32.98921387 79.06621094 36.10342773 79.87304688 39.31201172 C80.48846782 41.7678569 81.10371431 44.22374581 81.71875 46.6796875 C81.88008423 47.31979767 82.04141846 47.95990784 82.2076416 48.61941528 C82.68162989 50.5007729 83.15240416 52.38293938 83.62304688 54.26513672 C83.88952026 55.32658905 84.15599365 56.38804138 84.43054199 57.48165894 C85 60 85 60 85 62 C52 62 19 62 -15 62 C-10.40205224 41.30923507 -10.40205224 41.30923507 -8.203125 32.6171875 C-7.99091309 31.770354 -7.77870117 30.92352051 -7.56005859 30.05102539 C-6.79267629 26.99168755 -6.02112529 23.93339654 -5.25 20.875 C-3.5175 13.98625 -1.785 7.0975 0 0 Z " fill="#9EAFFD" transform="translate(221,384)"/>
<path d="M0 0 C0.82457111 -0.00199105 1.64914221 -0.0039821 2.49870032 -0.00603348 C3.85715181 -0.00166422 3.85715181 -0.00166422 5.24304676 0.00279331 C6.68634388 0.00151167 6.68634388 0.00151167 8.15879852 0.00020415 C11.39708976 -0.00144872 14.63532971 0.0040676 17.87361622 0.00952244 C20.18930021 0.00980438 22.50498428 0.00964644 24.82066822 0.00907993 C31.11988424 0.00879222 37.41908134 0.01468473 43.71829295 0.02165389 C50.29666248 0.02789178 56.8750324 0.02849157 63.45340443 0.0296793 C74.49891457 0.03227083 85.54441806 0.03868987 96.58992481 0.04760838 C107.96752862 0.05678548 119.34513055 0.06386486 130.72273731 0.06811619 C131.4238931 0.06837891 132.12504889 0.06864164 132.84745183 0.06891232 C136.36489666 0.07021734 139.8823415 0.07148106 143.39978635 0.07272422 C172.58678691 0.08309323 201.77378057 0.10078267 230.96077442 0.12304783 C232.13231736 2.41233836 233.29815516 4.70423145 234.46077442 6.99804783 C234.79464161 7.64902439 235.1285088 8.30000095 235.47249317 8.97070408 C237.96077442 13.89648533 237.96077442 13.89648533 237.96077442 16.12304783 C236.71579182 16.12451439 235.47080921 16.12598095 234.18809986 16.12749195 C204.62499923 16.16320523 175.06201155 16.21946267 145.49900538 16.30096878 C141.85914624 16.31098606 138.21928666 16.32083022 134.57942677 16.33056736 C133.49249541 16.33347942 133.49249541 16.33347942 132.38360584 16.33645031 C120.65550267 16.36745903 108.92741907 16.3844478 97.19928265 16.39624205 C85.16229616 16.40865947 73.12541222 16.43617417 61.08849049 16.47766089 C54.32870503 16.50052732 47.569052 16.51644997 40.80922413 16.51493168 C34.44640906 16.51418686 28.08391792 16.53206669 21.72118664 16.56421566 C19.38635389 16.5727328 17.05148489 16.57445234 14.71664333 16.56885052 C11.52672685 16.56221675 8.33784283 16.58011768 5.14803028 16.6040659 C4.22583258 16.59630548 3.30363487 16.58854506 2.35349178 16.58054948 C-5.11275548 16.67965798 -9.91600387 19.04090002 -16.03922558 23.12304783 C-16.38437343 16.76977062 -16.36203808 11.77182908 -13.03922558 6.12304783 C-9.19958951 2.08408639 -5.60993691 -0.00298878 0 0 Z " fill="#E2CAEA" transform="translate(72.0392255783081,72.87695217132568)"/>
<path d="M0 0 C130.35 0 260.7 0 395 0 C395 5.94 395 11.88 395 18 C393.02 19.485 393.02 19.485 391 21 C390.35750537 23.69732889 390.35750537 23.69732889 390.390625 26.76171875 C390.35839844 27.87998047 390.32617188 28.99824219 390.29296875 30.15039062 C390.27878906 31.31763672 390.26460938 32.48488281 390.25 33.6875 C390.22035156 34.86634766 390.19070313 36.04519531 390.16015625 37.25976562 C390.08938344 40.17324632 390.03672275 43.08592336 390 46 C388.41532272 45.71572583 386.8322943 45.42225182 385.25 45.125 C384.36828125 44.96257812 383.4865625 44.80015625 382.578125 44.6328125 C380.00342233 44.00084003 378.15835898 43.54387745 376 42 C374.95092773 39.52563477 374.95092773 39.52563477 374.18359375 36.44140625 C373.89419922 35.33345703 373.60480469 34.22550781 373.30664062 33.08398438 C373.01982422 31.92189453 372.73300781 30.75980469 372.4375 29.5625 C371.86209221 27.26979977 371.27783399 24.97929764 370.68359375 22.69140625 C370.43150146 21.67248291 370.17940918 20.65355957 369.91967773 19.60375977 C368.94549517 16.84568781 368.43778925 15.6021769 366 14 C363.14579402 13.55269612 363.14579402 13.55269612 359.90625 13.63671875 C358.71128906 13.63736328 357.51632812 13.63800781 356.28515625 13.63867188 C354.41150391 13.6628418 354.41150391 13.6628418 352.5 13.6875 C351.25089844 13.68427734 350.00179688 13.68105469 348.71484375 13.67773438 C341.97769387 13.44715107 341.97769387 13.44715107 336 16 C334.97117001 18.44419488 334.97117001 18.44419488 334.24609375 21.33984375 C333.80040039 22.9340918 333.80040039 22.9340918 333.34570312 24.56054688 C333.04599609 25.67494141 332.74628906 26.78933594 332.4375 27.9375 C331.83668343 30.1353916 331.23140889 32.33207077 330.62109375 34.52734375 C330.3573999 35.50437256 330.09370605 36.48140137 329.82202148 37.48803711 C329 40 329 40 327 43 C324.31350574 44.06759707 321.68568347 45.00146712 318.9375 45.875 C313.91104831 47.53139056 309.32090297 49.16481875 304.8125 52 C301.71020329 53.88181952 301.36754405 54.06014357 297.5625 53.4375 C295 52 295 52 293 50 C293.33 33.83 293.66 17.66 294 1 C196.98 1 99.96 1 0 1 C0 0.67 0 0.34 0 0 Z " fill="#F3BEDE" transform="translate(61,147)"/>
<path d="M0 0 C0.89460938 -0.00128906 1.78921875 -0.00257813 2.7109375 -0.00390625 C3.65195312 -0.00003906 4.59296875 0.00382813 5.5625 0.0078125 C6.97402344 0.00201172 6.97402344 0.00201172 8.4140625 -0.00390625 C9.75597656 -0.00197266 9.75597656 -0.00197266 11.125 0 C11.95128906 0.00112793 12.77757812 0.00225586 13.62890625 0.00341797 C15.5625 0.1328125 15.5625 0.1328125 16.5625 1.1328125 C16.66286005 3.64756624 16.6986771 6.13487498 16.69189453 8.65014648 C16.69364685 9.43711914 16.69539917 10.2240918 16.69720459 11.03491211 C16.70162411 13.64959892 16.69868449 16.26421869 16.6953125 18.87890625 C16.69598558 20.68872592 16.69695564 22.49854551 16.69821167 24.30836487 C16.69968883 28.1073594 16.69753375 31.90633046 16.69287109 35.70532227 C16.68717785 40.58259928 16.69045013 45.45982123 16.69644356 50.33709621 C16.70005214 54.07648638 16.69890914 57.81586343 16.69631577 61.55525398 C16.69564711 63.35385202 16.69647279 65.15245124 16.69879532 66.9510479 C16.70132624 69.4627588 16.69747481 71.9743798 16.69189453 74.48608398 C16.69391876 75.23473221 16.69594299 75.98338043 16.69802856 76.75471497 C16.67676347 81.90428556 16.67676347 81.90428556 15.5625 84.1328125 C12.25001813 84.16169396 8.93756833 84.17957049 5.625 84.1953125 C4.67947266 84.20369141 3.73394531 84.21207031 2.75976562 84.22070312 C1.41108398 84.22553711 1.41108398 84.22553711 0.03515625 84.23046875 C-0.79749756 84.23570557 -1.63015137 84.24094238 -2.48803711 84.24633789 C-4.4375 84.1328125 -4.4375 84.1328125 -5.4375 83.1328125 C-5.53787731 80.58229776 -5.57367487 78.05884071 -5.56689453 75.5078125 C-5.56864685 74.70947998 -5.57039917 73.91114746 -5.57220459 73.08862305 C-5.57662367 70.4366644 -5.57368492 67.78477188 -5.5703125 65.1328125 C-5.57098552 63.29817695 -5.57195553 61.46354149 -5.57321167 59.62890625 C-5.57468872 55.77863722 -5.57253386 51.92839134 -5.56787109 48.078125 C-5.5621738 43.13124753 -5.56545277 38.18442431 -5.57144356 33.23754883 C-5.57504898 29.44758695 -5.57391067 25.65763804 -5.57131577 21.86767578 C-5.57064644 20.04313145 -5.5714751 18.21858595 -5.57379532 16.39404297 C-5.57632154 13.84860089 -5.5724817 11.30324791 -5.56689453 8.7578125 C-5.56993088 7.61542114 -5.56993088 7.61542114 -5.57302856 6.44995117 C-5.54669629 0.00757154 -5.54669629 0.00757154 0 0 Z " fill="#04FDB3" transform="translate(398.4375,209.8671875)"/>
<path d="M0 0 C0.69787961 -0.00382555 1.39575921 -0.00765109 2.11478668 -0.01159257 C4.46478868 -0.02195197 6.81454767 -0.01792494 9.16456604 -0.01396179 C10.84470344 -0.01830666 12.52483886 -0.02348904 14.20497131 -0.02944946 C18.77724475 -0.04287518 23.34943572 -0.04341417 27.92172503 -0.04088616 C31.73404296 -0.03981885 35.54634404 -0.04469368 39.35865837 -0.04949158 C48.35012601 -0.06059917 57.34155188 -0.06101718 66.33302307 -0.05497742 C75.61933687 -0.04893566 84.90549923 -0.0612509 94.19178718 -0.08254749 C102.15530028 -0.10014126 110.11876508 -0.10616836 118.08229691 -0.10290974 C122.84267132 -0.10109315 127.60293772 -0.10377034 132.3632946 -0.11762428 C136.83910122 -0.13016189 141.31467113 -0.12829731 145.79047394 -0.11521339 C147.43563732 -0.11283914 149.08081715 -0.11561252 150.72596169 -0.12383652 C152.96716268 -0.1342345 155.20755915 -0.12626034 157.44873047 -0.11352539 C159.33220515 -0.113777 159.33220515 -0.113777 161.25372982 -0.1140337 C164.28785706 0.26069641 164.28785706 0.26069641 166.22702122 1.62392902 C167.28785706 3.26069641 167.28785706 3.26069641 167.10035706 5.82319641 C166.28785706 8.26069641 166.28785706 8.26069641 164.28785706 10.26069641 C161.36116028 10.515172 161.36116028 10.515172 157.53102112 10.52139282 C156.82835239 10.52521837 156.12568367 10.52904392 155.40172195 10.53298539 C153.03556697 10.54334495 150.66965331 10.53931774 148.30348206 10.53535461 C146.61187006 10.53969943 144.92026003 10.5448818 143.22865295 10.55084229 C138.62545606 10.5642675 134.02234108 10.56480712 129.41912842 10.56227899 C125.58186299 10.56121178 121.7446143 10.56608612 117.90735245 10.57088441 C108.85839341 10.5819915 99.80947587 10.58241007 90.76051331 10.57637024 C81.41169594 10.57032644 72.06302892 10.582649 62.71423721 10.60394031 C54.69893557 10.6215264 46.68368191 10.62756246 38.66836166 10.62430257 C33.87616135 10.62248498 29.0840683 10.62517311 24.29188538 10.63901711 C19.78735517 10.65154252 15.2830603 10.64970186 10.77853394 10.63660622 C9.12166262 10.63422939 7.46477502 10.63701438 5.80792236 10.64522934 C3.55323488 10.65560575 1.29935053 10.64767091 -0.95530701 10.63491821 C-2.21925293 10.63508595 -3.48319885 10.6352537 -4.78544617 10.63542652 C-5.7512561 10.51176558 -6.71706604 10.38810465 -7.71214294 10.26069641 C-9.71214294 7.26069641 -9.71214294 7.26069641 -9.46214294 4.69819641 C-7.84191616 -0.56754065 -4.95201812 0.00809852 0 0 Z " fill="#B8C5FF" transform="translate(97.71214294433594,283.7393035888672)"/>
<path d="M0 0 C0.69787961 -0.00382555 1.39575921 -0.00765109 2.11478668 -0.01159257 C4.46478868 -0.02195197 6.81454767 -0.01792494 9.16456604 -0.01396179 C10.84470344 -0.01830666 12.52483886 -0.02348904 14.20497131 -0.02944946 C18.77724475 -0.04287518 23.34943572 -0.04341417 27.92172503 -0.04088616 C31.73404296 -0.03981885 35.54634404 -0.04469368 39.35865837 -0.04949158 C48.35012601 -0.06059917 57.34155188 -0.06101718 66.33302307 -0.05497742 C75.61933687 -0.04893566 84.90549923 -0.0612509 94.19178718 -0.08254749 C102.15530028 -0.10014126 110.11876508 -0.10616836 118.08229691 -0.10290974 C122.84267132 -0.10109315 127.60293772 -0.10377034 132.3632946 -0.11762428 C136.83910122 -0.13016189 141.31467113 -0.12829731 145.79047394 -0.11521339 C147.43563732 -0.11283914 149.08081715 -0.11561252 150.72596169 -0.12383652 C152.96716268 -0.1342345 155.20755915 -0.12626034 157.44873047 -0.11352539 C159.33220515 -0.113777 159.33220515 -0.113777 161.25372982 -0.1140337 C164.28785706 0.26069641 164.28785706 0.26069641 166.22702122 1.62392902 C167.28785706 3.26069641 167.28785706 3.26069641 167.10035706 5.82319641 C166.28785706 8.26069641 166.28785706 8.26069641 164.28785706 10.26069641 C161.36116028 10.515172 161.36116028 10.515172 157.53102112 10.52139282 C156.82835239 10.52521837 156.12568367 10.52904392 155.40172195 10.53298539 C153.03556697 10.54334495 150.66965331 10.53931774 148.30348206 10.53535461 C146.61187006 10.53969943 144.92026003 10.5448818 143.22865295 10.55084229 C138.62545606 10.5642675 134.02234108 10.56480712 129.41912842 10.56227899 C125.58186299 10.56121178 121.7446143 10.56608612 117.90735245 10.57088441 C108.85839341 10.5819915 99.80947587 10.58241007 90.76051331 10.57637024 C81.41169594 10.57032644 72.06302892 10.582649 62.71423721 10.60394031 C54.69893557 10.6215264 46.68368191 10.62756246 38.66836166 10.62430257 C33.87616135 10.62248498 29.0840683 10.62517311 24.29188538 10.63901711 C19.78735517 10.65154252 15.2830603 10.64970186 10.77853394 10.63660622 C9.12166262 10.63422939 7.46477502 10.63701438 5.80792236 10.64522934 C3.55323488 10.65560575 1.29935053 10.64767091 -0.95530701 10.63491821 C-2.21925293 10.63508595 -3.48319885 10.6352537 -4.78544617 10.63542652 C-5.7512561 10.51176558 -6.71706604 10.38810465 -7.71214294 10.26069641 C-9.71214294 7.26069641 -9.71214294 7.26069641 -9.46214294 4.69819641 C-7.84191616 -0.56754065 -4.95201812 0.00809852 0 0 Z " fill="#B9C6FF" transform="translate(97.71214294433594,263.7393035888672)"/>
<path d="M0 0 C1.19496094 -0.00386719 1.19496094 -0.00386719 2.4140625 -0.0078125 C3.24679687 -0.00007812 4.07953125 0.00765625 4.9375 0.015625 C5.77023437 0.00789062 6.60296875 0.00015625 7.4609375 -0.0078125 C8.25757813 -0.00523437 9.05421875 -0.00265625 9.875 0 C10.60589844 0.00225586 11.33679688 0.00451172 12.08984375 0.00683594 C13.9375 0.265625 13.9375 0.265625 15.9375 2.265625 C16.18473816 4.92909241 16.18473816 4.92909241 16.18041992 8.35180664 C16.18349655 9.62975601 16.18657318 10.90770538 16.18974304 12.22438049 C16.18284582 13.62484924 16.17557889 15.0253162 16.16796875 16.42578125 C16.16677706 17.85542255 16.16632376 19.28506465 16.1665802 20.71470642 C16.16501509 23.71162818 16.1567226 26.70843054 16.14331055 29.70532227 C16.12630528 33.55472302 16.12249662 37.40399264 16.12325573 41.25342655 C16.12298437 44.20528932 16.11750899 47.15712318 16.11025429 50.10897636 C16.10706326 51.52881082 16.1050992 52.94864856 16.10436058 54.3684864 C16.10220249 56.34861548 16.09267331 58.32873244 16.08276367 60.30883789 C16.07704597 62.00188805 16.07704597 62.00188805 16.07121277 63.72914124 C15.9375 66.265625 15.9375 66.265625 14.9375 67.265625 C13.46097336 67.36443297 11.97982764 67.39641745 10.5 67.3984375 C9.15808594 67.40037109 9.15808594 67.40037109 7.7890625 67.40234375 C6.37753906 67.39654297 6.37753906 67.39654297 4.9375 67.390625 C3.52597656 67.39642578 3.52597656 67.39642578 2.0859375 67.40234375 C1.19132812 67.40105469 0.29671875 67.39976562 -0.625 67.3984375 C-1.45128906 67.39730957 -2.27757812 67.39618164 -3.12890625 67.39501953 C-5.0625 67.265625 -5.0625 67.265625 -6.0625 66.265625 C-6.1670582 64.282193 -6.20105605 62.29501259 -6.20776367 60.30883789 C-6.21414352 59.03404068 -6.22052338 57.75924347 -6.22709656 56.44581604 C-6.22862511 55.04330483 -6.22973914 53.64079311 -6.23046875 52.23828125 C-6.23367965 50.80960557 -6.23704359 49.38093022 -6.24055481 47.95225525 C-6.24655239 44.95359535 -6.24839407 41.9549643 -6.24780273 38.95629883 C-6.24770109 35.10804551 -6.26135297 31.2599766 -6.27857494 27.41176701 C-6.28967706 24.45986578 -6.2917225 21.50800938 -6.29119301 18.5560894 C-6.29237585 17.13707277 -6.29681454 15.71805509 -6.30452538 14.29905891 C-6.31428854 12.31666551 -6.31019253 10.33421834 -6.30541992 8.35180664 C-6.30684494 7.22231094 -6.30826996 6.09281525 -6.30973816 4.92909241 C-5.89943255 0.50891864 -4.00820575 0.01237101 0 0 Z " fill="#03FDB2" transform="translate(366.0625,226.734375)"/>
<path d="M0 0 C0.93238495 -0.00708481 1.8647699 -0.01416962 2.82540894 -0.02146912 C3.85143723 -0.0189917 4.87746552 -0.01651428 5.93458557 -0.01396179 C7.55176483 -0.02162819 7.55176483 -0.02162819 9.20161438 -0.02944946 C12.78005969 -0.04339631 16.35831351 -0.04238486 19.93678284 -0.04008484 C22.41538566 -0.04396896 24.89398782 -0.04830304 27.37258911 -0.05307007 C32.57377782 -0.06054325 37.77489867 -0.06023304 42.97608948 -0.05497742 C48.3257722 -0.04960452 53.67526576 -0.05664921 59.0249176 -0.07548523 C65.47222945 -0.09789885 71.91938298 -0.10574433 78.36673164 -0.10181236 C80.82878735 -0.10232707 83.29084668 -0.10759268 85.752882 -0.11762428 C89.1912391 -0.12991359 92.6290502 -0.12324188 96.06739807 -0.11161804 C97.09140213 -0.11926178 98.11540619 -0.12690552 99.17044067 -0.13478088 C100.57324783 -0.12425941 100.57324783 -0.12425941 102.00439453 -0.11352539 C102.81758368 -0.11369313 103.63077284 -0.11386087 104.46860409 -0.1140337 C107.08617169 0.35370194 108.00391976 1.13615155 109.56568909 3.26069641 C109.32115785 6.60262333 108.96025351 7.86613199 106.56568909 10.26069641 C104.57603455 10.515172 104.57603455 10.515172 102.08668518 10.52139282 C100.67331879 10.53202003 100.67331879 10.53202003 99.23139954 10.54286194 C97.67597443 10.53914581 97.67597443 10.53914581 96.08912659 10.53535461 C94.99964722 10.54046555 93.91016785 10.54557648 92.78767395 10.55084229 C89.17195708 10.56478823 85.55642972 10.56377789 81.94068909 10.56147766 C79.43727039 10.56536155 76.93385235 10.56969557 74.43043518 10.57446289 C69.17797725 10.58193566 63.92556876 10.58176346 58.67311096 10.57637024 C52.59615646 10.57032654 46.51943326 10.5826496 40.44251823 10.60394031 C34.60230832 10.6236516 28.76218939 10.62673359 22.92195129 10.62320518 C20.43394935 10.62372027 17.94594384 10.62899284 15.45796204 10.63901711 C11.98587475 10.65128962 8.51432954 10.64464522 5.04225159 10.63301086 C3.48682648 10.64447647 3.48682648 10.64447647 1.89997864 10.65617371 C0.95773438 10.64915939 0.01549011 10.64214508 -0.95530701 10.63491821 C-1.7767923 10.63508595 -2.59827759 10.6352537 -3.44465637 10.63542652 C-4.10124237 10.51176558 -4.75782837 10.38810465 -5.43431091 10.26069641 C-7.43431091 7.26069641 -7.43431091 7.26069641 -7.18431091 4.69819641 C-5.86623832 0.4144605 -4.16009743 0.0105069 0 0 Z " fill="#FFAAD0" transform="translate(95.43431091308594,221.7393035888672)"/>
<path d="M0 0 C0.73089844 0.00410889 1.46179688 0.00821777 2.21484375 0.01245117 C3.01148438 0.01438477 3.808125 0.01631836 4.62890625 0.01831055 C5.87800781 0.03667969 5.87800781 0.03667969 7.15234375 0.05541992 C7.98507812 0.05606445 8.8178125 0.05670898 9.67578125 0.05737305 C15.8714786 0.10248735 15.8714786 0.10248735 18.15234375 1.24291992 C18.17698949 7.20605159 18.19517775 13.16915387 18.20727539 19.13232422 C18.21231653 21.16260291 18.21914932 23.19287794 18.2277832 25.22314453 C18.23985842 28.13469339 18.24557409 31.04619442 18.25 33.95776367 C18.25516129 34.87130112 18.26032257 35.78483856 18.26564026 36.72605896 C18.26583543 38.89867419 18.2144618 41.07119288 18.15234375 43.24291992 C15.91262895 45.48263472 10.72336887 44.42823825 7.71484375 44.43041992 C6.82990234 44.44266602 5.94496094 44.45491211 5.03320312 44.4675293 C4.18693359 44.46946289 3.34066406 44.47139648 2.46875 44.47338867 C1.68959229 44.47749756 0.91043457 44.48160645 0.10766602 44.48583984 C-1.84765625 44.24291992 -1.84765625 44.24291992 -3.84765625 42.24291992 C-4.04771927 39.25329889 -4.12738548 36.35829642 -4.11328125 33.36791992 C-4.1151947 32.48765137 -4.11710815 31.60738281 -4.11907959 30.70043945 C-4.12044177 28.83764358 -4.11674307 26.97483823 -4.10839844 25.11206055 C-4.09769932 22.25442256 -4.10829257 19.39741326 -4.12109375 16.53979492 C-4.11977216 14.73250186 -4.11720978 12.92520919 -4.11328125 11.11791992 C-4.11732971 10.25956543 -4.12137817 9.40121094 -4.12554932 8.5168457 C-4.06218435 0.53407418 -4.06218435 0.53407418 0 0 Z " fill="#08FAB2" transform="translate(330.84765625,249.757080078125)"/>
<path d="M0 0 C2.2567991 1.84152515 4.22651301 3.62185703 6.25 5.6875 C6.79140625 6.20505859 7.3328125 6.72261719 7.890625 7.25585938 C10.47405796 9.84898021 11.87315408 11.61898892 13.046875 15.14453125 C12.97515926 19.51321519 10.95440652 21.0133372 8.03515625 24.03125 C7.36355469 24.6809375 6.69195312 25.330625 6 26 C5.40058594 26.6084375 4.80117188 27.216875 4.18359375 27.84375 C1.47526198 30.41272689 -0.03272038 31.81278459 -3.78515625 32.5390625 C-8.47719805 31.75230458 -10.65642987 29.22464313 -13.875 25.875 C-14.46796875 25.30523437 -15.0609375 24.73546875 -15.671875 24.1484375 C-18.30834598 21.47551761 -19.82506431 19.67262774 -20.78125 15.99609375 C-19.62037049 11.54412082 -16.93870762 9.2530291 -13.625 6.1875 C-12.72007812 5.31061523 -12.72007812 5.31061523 -11.796875 4.41601562 C-5.34228728 -1.77321682 -5.34228728 -1.77321682 0 0 Z M-4 13 C-4.66 14.32 -5.32 15.64 -6 17 C-4.515 17.99 -4.515 17.99 -3 19 C-2.34 17.68 -1.68 16.36 -1 15 C-1.99 14.34 -2.98 13.68 -4 13 Z " fill="#FF7DB7" transform="translate(323,35)"/>
<path d="M0 0 C23.1 0 46.2 0 70 0 C70.99 4.455 70.99 4.455 72 9 C47.58 9 23.16 9 -2 9 C-1.34 6.03 -0.68 3.06 0 0 Z " fill="#8399FD" transform="translate(221,384)"/>
<path d="M0 0 C4.42976509 1.13776235 6.77064916 3.70577318 9.87109375 6.95703125 C10.76054687 7.82424805 10.76054687 7.82424805 11.66796875 8.70898438 C14.0538358 11.14157924 15.75580109 12.98490217 16.76171875 16.26953125 C15.53191636 20.28521252 12.83069836 22.69641675 9.87109375 25.58203125 C9.30132812 26.17951172 8.7315625 26.77699219 8.14453125 27.39257812 C5.44960564 30.07219166 3.70310479 31.59755559 -0.0390625 32.5078125 C-4.15909983 31.48187435 -6.47990641 29.13292336 -9.31640625 26.14453125 C-9.85330078 25.62246094 -10.39019531 25.10039062 -10.94335938 24.5625 C-13.38258511 22.07098317 -14.88882579 20.04630704 -16.23828125 16.80078125 C-15.87651691 12.12196249 -13.24141056 10.02122344 -9.94140625 6.89453125 C-9.36712891 6.3015625 -8.79285156 5.70859375 -8.20117188 5.09765625 C-5.51265822 2.46673195 -3.68599057 0.94426546 0 0 Z " fill="#6684FD" transform="translate(382.00390625,404.23046875)"/>
<path d="M0 0 C2 2 2 2 2.625 4.875 C4.39637535 8.90085308 6.30997122 9.56141624 10.22265625 11.23828125 C12 12 12 12 13 13 C13.3125 15.875 13.3125 15.875 13 19 C10.92477995 21.15208005 9.30108001 21.91187902 6.4375 22.75 C2.84857633 24.59047368 2.43428638 27.34908923 1 31 C-2 33 -2 33 -4.4375 33.125 C-7.507156 31.77734614 -7.56090534 31.16142183 -8.8125 28.1875 C-10.35920986 24.58916261 -11.57611667 23.38509801 -15.1875 21.875 C-17.28125 20.99609375 -17.28125 20.99609375 -19 20 C-20.1875 16.9375 -20.1875 16.9375 -20 14 C-18.32887147 11.1799706 -16.56155419 10.84615936 -13.4375 9.75 C-9.64624919 8.31297067 -9.64624919 8.31297067 -8.6875 4.375 C-8.460625 3.26125 -8.23375 2.1475 -8 1 C-5.23749964 -0.38125018 -3.05268901 -0.19079306 0 0 Z " fill="#97FFD2" transform="translate(110,445)"/>
<path d="M0 0 C1.010625 0.350625 2.02125 0.70125 3.0625 1.0625 C3.83984375 2.80859375 3.83984375 2.80859375 4.4375 4.9375 C5.0042851 7.14584703 5.0042851 7.14584703 6.0625 9.0625 C8.1107012 10.11157867 10.09955269 10.6625573 12.30859375 11.2890625 C14.0625 12.0625 14.0625 12.0625 15.25 15.0625 C15.0625 18.0625 15.0625 18.0625 14 19.8125 C12.0625 21.0625 12.0625 21.0625 9.0625 21.8125 C5.7027224 22.82885956 5.7027224 22.82885956 4.3125 26.5625 C3.9 27.7175 3.4875 28.8725 3.0625 30.0625 C2.4025 30.7225 1.7425 31.3825 1.0625 32.0625 C-2.23464793 31.73278521 -3.5601839 31.4398161 -5.9375 29.0625 C-6.164375 28.093125 -6.39125 27.12375 -6.625 26.125 C-7.69771841 22.71139124 -7.69771841 22.71139124 -11.4375 21.3125 C-12.5925 20.9 -13.7475 20.4875 -14.9375 20.0625 C-16.9375 18.0625 -16.9375 18.0625 -17.0625 15.125 C-16.69125 14.114375 -16.32 13.10375 -15.9375 12.0625 C-14.1875 11.28515625 -14.1875 11.28515625 -12.0625 10.6875 C-8.80829408 9.75229075 -8.80829408 9.75229075 -6.8125 7.140625 C-6.04176429 4.96519472 -6.04176429 4.96519472 -5.5078125 2.8046875 C-5.31960937 2.22976563 -5.13140625 1.65484375 -4.9375 1.0625 C-2.9375 0.0625 -2.9375 0.0625 0 0 Z " fill="#6784FD" transform="translate(150.9375,398.9375)"/>
<path d="M0 0 C4.9779936 0.80346563 7.34991888 3.63363729 10.77734375 7.1640625 C11.42638672 7.78152344 12.07542969 8.39898437 12.74414062 9.03515625 C17.24486615 13.56929119 17.24486615 13.56929119 17.63671875 17.5703125 C15.84909764 21.66245722 13.32448915 24.32235739 10.15234375 27.4140625 C9.58708984 28.00703125 9.02183594 28.6 8.43945312 29.2109375 C5.58525321 32.04879034 4.10586261 33.42121345 0.0390625 34.046875 C-2.66015625 33.5390625 -2.66015625 33.5390625 -4.66015625 31.5390625 C-5.06640625 29.21484375 -5.06640625 29.21484375 -4.66015625 26.5390625 C-2.69140625 24.08203125 -2.69140625 24.08203125 -0.16015625 21.7265625 C0.67515625 20.93636719 1.51046875 20.14617187 2.37109375 19.33203125 C3.02078125 18.74035156 3.67046875 18.14867187 4.33984375 17.5390625 C3.40393871 16.4335436 2.46604517 15.32970797 1.52734375 14.2265625 C1.00527344 13.61167969 0.48320312 12.99679688 -0.0546875 12.36328125 C-1.61748595 10.52796991 -1.61748595 10.52796991 -3.33984375 8.96875 C-4.66015625 7.5390625 -4.66015625 7.5390625 -4.97265625 4.9765625 C-4.51793299 1.42972109 -3.44906505 0.69892948 0 0 Z " fill="#466BFD" transform="translate(152.66015625,168.4609375)"/>
<path d="M0 0 C2.66015625 0.5390625 2.66015625 0.5390625 4.66015625 2.5390625 C5.06640625 4.86328125 5.06640625 4.86328125 4.66015625 7.5390625 C2.69140625 9.99609375 2.69140625 9.99609375 0.16015625 12.3515625 C-0.67515625 13.14175781 -1.51046875 13.93195313 -2.37109375 14.74609375 C-3.02078125 15.33777344 -3.67046875 15.92945313 -4.33984375 16.5390625 C-3.40393871 17.6445814 -2.46604517 18.74841703 -1.52734375 19.8515625 C-1.00527344 20.46644531 -0.48320313 21.08132812 0.0546875 21.71484375 C1.61748595 23.55015509 1.61748595 23.55015509 3.33984375 25.109375 C4.66015625 26.5390625 4.66015625 26.5390625 4.97265625 29.1015625 C4.66015625 31.5390625 4.66015625 31.5390625 2.66015625 33.5390625 C-0.37996445 34.11100996 -2.40054884 34.1670684 -5.02978516 32.40917969 C-6.83242224 30.81980216 -8.4942503 29.15345358 -10.15234375 27.4140625 C-10.73693359 26.84429687 -11.32152344 26.27453125 -11.92382812 25.6875 C-14.46886879 23.09232528 -16.17294193 20.92112692 -17.63671875 17.5703125 C-17.16340104 12.73748956 -14.18658702 10.40741409 -10.77734375 7.1640625 C-10.15537109 6.52339844 -9.53339844 5.88273438 -8.89257812 5.22265625 C-5.89529999 2.28488521 -4.22201481 0.681448 0 0 Z " fill="#466BFD" transform="translate(106.33984375,168.4609375)"/>
<path d="M0 0 C1.9375 0.75 1.9375 0.75 3.9375 2.75 C4.01575157 9.96870741 -0.00743951 15.57158489 -3.5625 21.625 C-4.16964844 22.68203125 -4.77679688 23.7390625 -5.40234375 24.828125 C-9.85374715 32.54124715 -9.85374715 32.54124715 -11.0625 33.75 C-14 33.9375 -14 33.9375 -17.0625 33.75 C-19.0625 31.75 -19.0625 31.75 -19.0859375 28.86328125 C-18.05254843 23.01599619 -14.62864092 17.99892462 -11.6875 12.9375 C-10.80191406 11.36452148 -10.80191406 11.36452148 -9.8984375 9.75976562 C-4.03090444 -0.48859448 -4.03090444 -0.48859448 0 0 Z " fill="#486DFD" transform="translate(137.0625,168.25)"/>
<path d="M0 0 C3.5625 0.1875 3.5625 0.1875 5.5625 2.1875 C5.8125 5.1875 5.8125 5.1875 5.5625 8.1875 C3.5625 10.1875 3.5625 10.1875 0.625 10.5 C-2.4375 10.1875 -2.4375 10.1875 -4.375 9.0625 C-5.97693488 6.23555609 -5.23334319 4.23823223 -4.4375 1.1875 C-3.4375 0.1875 -3.4375 0.1875 0 0 Z " fill="#6A87FE" transform="translate(308.4375,168.8125)"/>
<path d="M0 0 C2 2 2 2 2.25 5 C2 8 2 8 0 10 C-3.1304173 10.33302312 -5.17898298 10.47671956 -7.9375 8.875 C-9 7 -9 7 -8.8125 3.875 C-8.544375 2.92625 -8.27625 1.9775 -8 1 C-5.23749964 -0.38125018 -3.05268901 -0.19079306 0 0 Z " fill="#6986FE" transform="translate(295,169)"/>
<path d="M0 0 C3 0.25 3 0.25 5 2.25 C5.25 5.25 5.25 5.25 5 8.25 C3 10.25 3 10.25 0.0625 10.5625 C-3 10.25 -3 10.25 -4.9375 9.0625 C-6 7.25 -6 7.25 -5.8125 4.6875 C-4.61374094 1.09122283 -3.8124642 0.31770535 0 0 Z " fill="#6986FE" transform="translate(275,168.75)"/>
<path d="M0 0 C2.4375 0.8125 2.4375 0.8125 4.4375 2.8125 C3.86931818 8.38068182 3.86931818 8.38068182 2.4375 9.8125 C-0.5 10 -0.5 10 -3.5625 9.8125 C-5.5625 7.8125 -5.5625 7.8125 -5.875 5.375 C-5.5625 2.8125 -5.5625 2.8125 -4.375 0.9375 C-2.5625 -0.1875 -2.5625 -0.1875 0 0 Z " fill="#2A2CC0" transform="translate(133.5625,113.1875)"/>
<path d="M0 0 C3.29714793 0.32971479 4.6226839 0.6226839 7 3 C7.25 5.5 7.25 5.5 7 8 C5 10 5 10 2 10.3125 C1.01 10.209375 0.02 10.10625 -1 10 C-3 7 -3 7 -2.75 4.4375 C-2 2 -2 2 0 0 Z " fill="#292BBF" transform="translate(92,113)"/>
<path d="M0 0 C0.763125 0.20625 1.52625 0.4125 2.3125 0.625 C2.9375 4 2.9375 4 3.3125 7.625 C1.3125 9.625 1.3125 9.625 -1.6875 9.9375 C-2.6775 9.834375 -3.6675 9.73125 -4.6875 9.625 C-6.6875 6.625 -6.6875 6.625 -6.5 4.0625 C-5.2959794 0.45043821 -3.76396151 -0.52520393 0 0 Z " fill="#292BC0" transform="translate(114.6875,113.375)"/>
<path d="M0 0 C1.32 0.66 2.64 1.32 4 2 C4 2.99 4 3.98 4 5 C2.02 5.99 2.02 5.99 0 7 C-0.99 5.68 -1.98 4.36 -3 3 C-2.01 2.01 -1.02 1.02 0 0 Z " fill="#D0D6FC" transform="translate(381,417)"/>
</svg>
